<svg width="42px" height="47px" viewBox="0 0 42 47" version="1.1" xmlns="http://www.w3.org/2000/svg" xmlns:xlink="http://www.w3.org/1999/xlink">
    <!-- Generator: Sketch 48.2 (47327) - http://www.bohemiancoding.com/sketch -->
    <desc>Created with Sketch.</desc>
    <defs>
        <polygon id="path-1" points="0 0.000423423423 41.78076 0.000423423423 41.78076 46.9999153 0 46.9999153"></polygon>
    </defs>
    <g id="Welcome" stroke="none" stroke-width="1" fill="none" fill-rule="evenodd">
        <g id="Features" transform="translate(-1185.000000, -1567.000000)">
            <g id="Page-1" transform="translate(1185.000000, 1567.000000)">
                <g id="Group-3">
                    <mask id="mask-2" fill="white">
                        <use xlink:href="#path-1"></use>
                    </mask>
                    <g id="Clip-2"></g>
                    <path d="M39.15597,9.81275315 L23.51559,0.70914955 C21.89145,-0.235931532 19.88973,-0.235931532 18.26559,0.70914955 L2.62479,9.81275315 C1.00065,10.7578342 -0.00021,12.5053027 -0.00021,14.3963117 L-0.00021,32.6035189 C-0.00021,34.4945279 1.00065,36.2419964 2.62479,37.1870775 L18.26559,46.2906811 C19.07745,46.763645 19.98423,46.9999153 20.89059,46.9999153 C21.79695,46.9999153 22.70331,46.763645 23.51559,46.2906811 L39.15597,37.1870775 C40.78053,36.2419964 41.78097,34.4945279 41.78097,32.6035189 L41.78097,14.3963117 C41.78097,12.5053027 40.78053,10.7578342 39.15597,9.81275315" id="Fill-1" fill="#4A6EB4" mask="url(#mask-2)"></path>
                </g>
                <path d="M25,20.476226 L21.9349163,20.476226 L21.9349163,18.4004223 C21.9349163,17.6212714 22.4348717,17.4391107 22.7872862,17.4391107 L24.9502851,17.4391107 L24.9502851,14.01242 L21.9714006,14 C18.6645581,14 17.9120189,16.5560455 17.9120189,18.1917655 L17.9120189,20.476226 L16,20.476226 L16,24.007245 L17.9120189,24.007245 L17.9120189,34 L21.9349163,34 L21.9349163,24.007245 L24.6487883,24.007245 L25,20.476226 Z" id="Fill-4" fill="#FEFEFE"></path>
            </g>
        </g>
    </g>
</svg>