
<svg width="46px" height="46px" viewBox="0 0 46 46" version="1.1" xmlns="http://www.w3.org/2000/svg" xmlns:xlink="http://www.w3.org/1999/xlink">
    <!-- Generator: Sketch 48.2 (47327) - http://www.bohemiancoding.com/sketch -->
    <desc>Created with Sketch.</desc>
    <defs>
        <polygon id="path-1" points="0 0.0368970976 45.9630786 0.0368970976 45.9630786 46 0 46"></polygon>
    </defs>
    <g id="Welcome" stroke="none" stroke-width="1" fill="none" fill-rule="evenodd">
        <g id="Home" transform="translate(-31.000000, -31.000000)">
            <g id="Page-1" transform="translate(31.000000, 31.000000)">
                <g id="Group-3">
                    <mask id="mask-2" fill="white">
                        <use xlink:href="#path-1"></use>
                    </mask>
                    <g id="Clip-2"></g>
                    <path d="M45.9630786,23.0180844 C45.9630786,23.5036939 45.9481499,23.9862691 45.918171,24.4644749 C45.9090681,24.6113351 45.8986301,24.757467 45.8866142,24.9035989 L45.8866142,24.9043272 C45.8492317,25.3651768 45.7982554,25.821657 45.7345351,26.2742533 C45.3762449,28.796 44.6096591,31.1858153 43.5027462,33.3740317 C42.6979282,34.9672823 41.7117805,36.4540897 40.5725826,37.8075092 C39.4440654,39.1489129 38.1648042,40.3592348 36.7611367,41.4121372 C35.9443029,42.0251873 35.0854744,42.5849551 34.1899916,43.086343 C30.8738649,44.9426069 27.0511314,46 22.9811631,46 C22.1882396,46 21.404419,45.9595831 20.6324929,45.8815409 L20.6317646,45.8815409 C19.7504823,45.7917256 18.8841288,45.6529974 18.0358596,45.4664485 L18.0351314,45.4664485 C15.7412,44.9636042 13.5754375,44.1175198 11.5947673,42.9851187 C11.1870786,42.7528127 10.7876433,42.5077625 10.3964612,42.2515462 L10.395733,42.2515462 C8.41130026,40.9489815 6.64121055,39.3497836 5.14845594,37.5145172 C4.86881478,37.171277 4.59912612,36.8206332 4.34048232,36.4608865 C2.70086755,34.1924433 1.46578575,31.6121953 0.741194723,28.8267071 C0.634023219,28.4182902 0.538017942,28.0046544 0.454149868,27.5871346 C0.156667018,26.1101583 -2.42744063e-05,24.5828127 -2.42744063e-05,23.0180844 C-2.42744063e-05,22.100876 0.0539862797,21.195562 0.158851715,20.3060264 C0.206793668,19.893847 0.266023219,19.4847018 0.336540369,19.0799261 C0.658783113,17.2132243 1.20653509,15.4235937 1.95066702,13.7396781 C2.19498892,13.1859789 2.46103641,12.6433245 2.74808127,12.1135356 L2.74808127,12.1128074 C4.12395462,9.56253826 5.96978047,7.30307652 8.1677066,5.4483905 C9.09620264,4.66372032 10.0876908,3.95260158 11.1339177,3.32304485 L11.1346459,3.32231662 C12.568171,2.4575409 14.1037699,1.74557256 15.7194744,1.20825858 C16.212609,1.04416359 16.7131472,0.895725594 17.2204823,0.765372032 C19.0618174,0.289472296 20.9915113,0.0368970976 22.9811631,0.0368970976 C24.3390734,0.0368970976 25.6693108,0.154627968 26.9620443,0.380865435 C28.7312844,0.689635884 30.4309784,1.20073351 32.0362449,1.89024802 C33.7500179,2.62539842 35.3567409,3.56360422 36.8255852,4.67427968 C37.2093636,4.96350923 37.5840391,5.26548285 37.9482765,5.57874406 C38.3206459,5.89795251 38.6818491,6.22917678 39.0326142,6.57096042 C39.3638385,6.89465963 39.685353,7.22746174 39.9955799,7.56997361 C40.7120391,8.35755673 41.3737594,9.19465963 41.9747937,10.0766702 C42.2191156,10.4333826 42.4528781,10.7976201 42.6762026,11.168533 C43.7215799,12.9011187 44.5437541,14.7828707 45.1049784,16.7741003 C45.2189467,17.1802111 45.3223557,17.590934 45.414477,18.0060264 C45.5913161,18.8004063 45.72701,19.6112929 45.8192528,20.4349235 C45.8611261,20.8072929 45.8941393,21.1835462 45.9173214,21.5619842 C45.941353,21.9411504 45.9555536,22.3233509 45.9608939,22.7085858 C45.9623504,22.8112665 45.9630786,22.9146755 45.9630786,23.0180844" id="Fill-1" fill="#DA4E5E" mask="url(#mask-2)"></path>
                </g>
                <path d="M16.6914119,30.7270361 C16.5953403,30.457493 16.7356025,30.1609265 17.0047634,30.0646776 L17.1671782,30.0066062 C17.4363392,29.9103572 17.5766013,29.6137908 17.4805298,29.3442477 C17.3844582,29.0745896 17.0884386,28.9340684 16.8193924,29.0303174 L13.3436007,30.2730445 C13.0745545,30.3692935 12.9341776,30.6658599 13.0302491,30.935403 C13.1263207,31.2050611 13.4223403,31.3455823 13.6913865,31.2493333 L14.5035753,30.9589765 C14.7726215,30.8628426 15.0686411,31.0033638 15.1647126,31.2729069 C15.2606694,31.542565 15.1204072,31.8391314 14.8513611,31.9352654 L14.6889463,31.9933367 C14.4197853,32.0895857 14.2795232,32.3861521 14.3755947,32.6558102 C14.4715515,32.9253533 14.7675711,33.0658745 15.0367321,32.9697405 L20.6563993,30.9603565 C20.9254455,30.8641075 21.0658224,30.5675411 20.9697509,30.297883 C20.8736793,30.0283399 20.5776597,29.8878187 20.3086135,29.9839526 L17.3525492,31.0409664 C17.083503,31.1372154 16.7874834,30.9965792 16.6914119,30.7270361" id="Fill-4" fill="#BC4A5A"></path>
                <path d="M14.9689341,14.7041673 C14.8703087,14.4105536 14.5664202,14.2575489 14.2902221,14.3623484 L9.42152392,16.2087968 C9.14520801,16.3135962 8.84131943,16.1604663 8.74281192,15.8669778 C8.64418658,15.5733641 8.78817722,15.2504516 9.06449313,15.1457774 L11.8322477,14.0960301 C12.1085636,13.9912307 12.2525542,13.6683182 12.1539289,13.3748297 C12.0553036,13.0812159 11.7515328,12.9282113 11.4752169,13.0330107 L5.70616486,15.2209024 C5.42984894,15.3257019 5.28585831,15.6486144 5.38448365,15.9421029 C5.48310898,16.2357166 5.78699757,16.3887213 6.06319565,16.2839218 L6.66343158,16.0562929 C6.93974749,15.9514935 7.24363608,16.1046234 7.34214359,16.3981119 C7.44076892,16.6917256 7.29677829,17.0146381 7.02046237,17.1193123 L4.35274713,18.1311215 C4.07643122,18.2359209 3.93244058,18.5587082 4.03106592,18.8523219 C4.12969126,19.1458104 4.43357985,19.2989403 4.70977793,19.1941409 L8.7781615,17.6511977 C9.05435958,17.5463982 9.35824817,17.6995281 9.45687351,17.9930166 C9.55549885,18.2866303 9.41150821,18.6095428 9.1351923,18.714217 L8.63499569,18.9039078 C8.35867978,19.0087072 8.21468914,19.3316197 8.31331448,19.6252334 C8.41193982,19.9187219 8.7158284,20.0717266 8.99202648,19.9670524 L12.5602135,18.6137999 C12.8364115,18.5090005 12.98052,18.186088 12.8818947,17.8925995 C12.7832693,17.5989857 12.4793807,17.4459811 12.2031827,17.5507805 L11.702986,17.7404713 C11.4266701,17.8452707 11.1227816,17.6921408 11.0241562,17.3986523 C10.9256487,17.1050386 11.0696393,16.7822513 11.3458374,16.6774519 L14.6472529,15.4253678 C14.9235688,15.3205683 15.0675594,14.9976558 14.9689341,14.7041673" id="Fill-6" fill="#BC4A5A"></path>
                <path d="M21.5719969,4.36554546 C21.4673779,4.07931611 21.1450214,3.92997374 20.8520383,4.03218107 L17.0670059,5.35196216 C16.7740228,5.45404737 16.6211566,5.76897293 16.7257756,6.0553244 C16.8303945,6.34155376 17.152751,6.49089612 17.4457342,6.3886888 L18.4009292,6.05569074 C18.6939124,5.95348341 19.0162688,6.10270366 19.1208878,6.38905513 C19.2253818,6.67528449 19.0726406,6.99021005 18.7796574,7.09241737 L16.3741708,7.93107915 C16.0811876,8.03328648 15.9283214,8.34821204 16.0329404,8.6344414 C16.1375594,8.92079286 16.4599158,9.07001312 16.752899,8.96780579 L20.5733043,7.63581355 C20.8664124,7.53360622 21.0191537,7.21868066 20.9145347,6.93245131 C20.8099157,6.64609984 20.9627819,6.33117428 21.255765,6.22896695 L23.6258787,5.40263843 C23.9188619,5.30043111 24.0716031,4.98550555 23.9671091,4.69927619 C23.8624901,4.41292472 23.5401337,4.26370447 23.2470255,4.3659118 L22.2919555,4.69890986 C21.9989723,4.80111718 21.6766158,4.65189693 21.5719969,4.36554546" id="Fill-8" fill="#BC4A5A"></path>
                <path d="M27.5435146,11.3235267 L22.9185707,12.9601416 C22.5610188,13.0866894 22.1678306,12.9019061 22.0401996,12.5473891 C21.9125685,12.1928721 22.0989336,11.8030211 22.4564854,11.6764733 L27.0814293,10.0398584 C27.4389812,9.91331056 27.8321694,10.0980939 27.9598004,10.4526109 C28.0874315,10.8071279 27.9010664,11.1969789 27.5435146,11.3235267" id="Fill-10" fill="#BC4A5A"></path>
                <path d="M27.5729932,26.810308 L26.8592518,26.9755974 C26.5247898,27.0530742 26.1569926,26.9399436 26.0376036,26.7228962 C25.9182146,26.5058488 26.0925447,26.2671688 26.4270068,26.189692 L27.1407482,26.0244026 C27.4752102,25.9469258 27.8430074,26.0600564 27.9623964,26.2771038 C28.0817854,26.4941512 27.9074553,26.7328312 27.5729932,26.810308" id="Fill-12" fill="#A04453"></path>
                <path d="M18.3274645,21.914509 L18.2027532,21.6104441 C18.1161064,21.3994937 18.2425707,21.1673066 18.4852319,21.0919438 C18.727893,21.0166899 18.8543573,20.7845028 18.7678357,20.5734435 L18.6429992,20.2694875 C18.5564776,20.0584282 18.2895253,19.9484333 18.0468641,20.0236872 L13.3098377,21.4942417 C13.0671766,21.5694955 12.9407123,21.8016826 13.0272339,22.012742 L13.1520704,22.3166979 C13.238592,22.5277573 13.5055443,22.637861 13.7482055,22.5624982 L16.11747,21.8270577 C16.3601311,21.7516949 16.6269582,21.8616897 16.713605,22.072749 L16.8383164,22.3768139 C16.9249632,22.5877644 16.7983737,22.8199514 16.5558377,22.8953142 L16.5147681,22.9080562 C16.272107,22.9833101 16.1456427,23.2154972 16.2321643,23.4265565 L16.3570008,23.7305125 C16.4435224,23.9415718 16.7104747,24.0515667 16.9531359,23.9763128 L21.6901623,22.5057583 C21.9328234,22.4305045 22.0592877,22.1983174 21.9727661,21.987258 L21.8479296,21.6833021 C21.761408,21.4722427 21.4944557,21.3622479 21.2517945,21.4375018 L18.9235996,22.1602004 C18.6809385,22.2355632 18.4141114,22.1255683 18.3274645,21.914509" id="Fill-14" fill="#A04453"></path>
                <path d="M38.9710222,14.5425778 L38.9180778,14.3886528 C38.8134233,14.0842604 38.4906973,13.9255972 38.1973438,14.0341899 L37.2677943,14.3785363 C36.9744407,14.487129 36.8215315,14.8219991 36.926186,15.1262635 L36.9791304,15.2801885 C37.0839083,15.5845809 36.9309992,15.919451 36.6376456,16.0280437 L32.5179839,17.5537196 C32.2246303,17.6623123 31.9019044,17.5036491 31.7972498,17.1992567 L31.7443055,17.0453317 C31.639651,16.7409393 31.7925601,16.4061972 32.0859137,16.2976045 L32.2794259,16.2258924 C32.5727794,16.1171716 32.7256886,15.7824296 32.6210341,15.4780371 L32.5680897,15.3241121 C32.4634352,15.0198478 32.1407092,14.8610566 31.8473557,14.9697773 L27.3744849,16.6261998 C27.0812547,16.7347925 26.9282222,17.0696626 27.0330001,17.373927 L27.0859445,17.527852 C27.190599,17.8322444 27.5132015,17.9909076 27.8065551,17.8823149 L29.5118811,17.2507358 C29.8052346,17.1421431 30.1278372,17.3008062 30.2326151,17.6051987 L30.2855595,17.7591237 C30.390214,18.0635161 30.2373048,18.3982582 29.9439513,18.5068508 L29.3963661,18.7096938 C29.1030126,18.8182864 28.9501034,19.1531566 29.0547579,19.457549 L29.1077023,19.611474 C29.2124802,19.9157384 29.5350828,20.0744015 29.8284364,19.9658088 L40.6255018,15.9673445 C40.9188554,15.8586237 41.0717645,15.5238817 40.9669866,15.2194892 L40.9140423,15.0655642 C40.8093877,14.7611718 40.4867852,14.6025087 40.1934316,14.7112294 L39.6917562,14.8970407 C39.3984027,15.0056334 39.0756767,14.8469703 38.9710222,14.5425778" id="Fill-16" fill="#BC4A5A"></path>
                <path d="M35.9636695,29.4235095 C35.8483225,29.0917868 35.4929772,28.9188844 35.1698384,29.0372956 L30.9900287,30.5686817 C30.6668899,30.6870928 30.4984617,31.0518777 30.6138088,31.3836004 C30.7291558,31.7153232 31.0845011,31.8882256 31.4076399,31.7698144 L31.7046555,31.6610769 C32.027675,31.5426657 32.3831395,31.7155681 32.4984866,32.0472909 C32.6137144,32.3788912 32.4452862,32.7437985 32.1222667,32.8622096 L25.2522583,35.3792127 C24.9291196,35.4976239 24.7606914,35.8624087 24.8760384,36.1941315 C24.9913855,36.5258543 25.3467308,36.6987566 25.6698695,36.5803455 L25.7558728,36.5488753 C26.0790116,36.4304641 26.4343568,36.6033665 26.5497039,36.9350892 C26.665051,37.2666895 26.4966228,37.6315968 26.173484,37.750008 L23.4125504,38.7615849 C23.0894116,38.8798736 22.9209834,39.2447809 23.0363305,39.5765036 C23.1516775,39.9081039 23.5070228,40.0811288 23.8301616,39.9627176 L28.0099713,38.4313315 C28.3331101,38.3129203 28.5015383,37.9480131 28.3861912,37.6164127 L28.177326,37.0157852 L28.1552585,37.023867 L27.9465126,36.4233619 C27.8311655,36.0916391 27.9995937,35.7267318 28.3227324,35.6084431 L35.5570324,32.9578447 C35.8801711,32.8394336 36.0485993,32.4746487 35.9333715,32.142926 C35.8180245,31.8112032 35.4625599,31.6383008 35.1395405,31.756712 L34.6578741,31.9331655 C34.3347353,32.0515767 33.9793901,31.8786743 33.864043,31.5469515 C33.748696,31.2152288 33.9171241,30.850444 34.2402629,30.7320328 L35.5874496,30.2384283 C35.9105884,30.1200171 36.0790166,29.7552323 35.9636695,29.4235095" id="Fill-18" fill="#BC4A5A"></path>
                <path d="M8.54351458,24.3235267 L3.91857065,25.9601416 C3.56101884,26.0866894 3.16783063,25.9019061 3.04019955,25.5473891 C2.91256847,25.1928721 3.09893361,24.8030211 3.45648542,24.6764733 L8.08142935,23.0398584 C8.43898116,22.9133106 8.83216937,23.0980939 8.95980045,23.4526109 C9.08743153,23.8071279 8.90106639,24.1969789 8.54351458,24.3235267" id="Fill-20" fill="#BC4A5A"></path>
                <path d="M5,26.7428698 C5,27.0475289 4.85415809,27.3346444 4.62023996,27.4430437 L1.259726,29 C1.1627543,28.5200478 1.07599594,28.0339625 1,27.5434557 L4.23575763,26.0435517 C4.53348159,25.9053426 4.86030805,26.1070224 4.96672432,26.4936941 C4.98912775,26.5755641 5,26.660144 5,26.7428698" id="Fill-22" fill="#BC4A5A"></path>
                <path d="M38.5435146,22.3235267 L33.9185707,23.9601416 C33.5610188,24.0866894 33.1678306,23.9019061 33.0401996,23.5473891 C32.9125685,23.1928721 33.0989336,22.8030211 33.4564854,22.6764733 L38.0814293,21.0398584 C38.4389812,20.9133106 38.8321694,21.0980939 38.9598004,21.4526109 C39.0874315,21.8071279 38.9010664,22.1969789 38.5435146,22.3235267" id="Fill-24" fill="#BC4A5A"></path>
                <path d="M41,7.73402936 L37.0791584,8.97510312 C36.828639,9.0542889 36.5526671,8.93831783 36.4632605,8.71611635 L36.3348354,8.39627915 C36.2454288,8.17407767 36.3763087,7.92998837 36.6268281,7.85080259 L36.6690766,7.83728028 C36.9188208,7.7580945 37.0495715,7.5140052 36.9602941,7.29180372 L36.831869,6.97196652 C36.7424624,6.74976504 36.4664905,6.63379397 36.2167463,6.71297975 L33.7717598,7.48707516 C33.5212404,7.56637553 33.2460437,7.45097744 33.1566371,7.22877596 L33.028212,6.90905336 C32.9388054,6.68685188 33.0689101,6.44276258 33.3194295,6.3634622 L37.6255464,5 C38.0339486,5.27308207 38.4329191,5.5583113 38.8206493,5.85408336 C38.7751708,5.89086865 38.7209066,5.92054899 38.6594073,5.93968651 C38.4088879,6.01887229 38.2789124,6.26364916 38.368319,6.48516307 L38.4967441,6.80568784 C38.5860215,7.02720175 38.8612182,7.14317281 39.1117375,7.06398704 L39.9749248,6.79079037 C40.3275124,7.09653228 40.669764,7.41063968 41,7.73402936" id="Fill-26" fill="#BC4A5A"></path>
                <path d="M43,33.016688 C42.1995537,34.6197448 41.2186418,36.1157031 40.0857526,37.4774526 L38.7270097,37.9683712 C38.6666533,37.9902305 38.6047277,38 38.5443713,38 C38.3208113,38 38.1113747,37.8596852 38.0315835,37.6342535 C37.9310298,37.3484949 38.0785408,37.0333056 38.3610086,36.9315804 L40.6842464,36.0922562 C40.9070822,36.0123904 41.0457811,35.8005138 41.0457811,35.5743493 C41.0457811,35.512435 41.0352791,35.44991 41.0136715,35.3888505 C40.9131178,35.1030919 40.6015582,34.9537403 40.3182453,35.0555876 L39.396362,35.3888505 C39.3360056,35.4107098 39.27408,35.4204793 39.2137236,35.4204793 C38.9901635,35.4204793 38.7798819,35.2802867 38.7009358,35.0555876 C38.5995371,34.7689742 38.7471688,34.453785 39.0303609,34.3520598 L42.6854225,33.0318308 C42.7905634,32.994096 42.8993256,32.991043 43,33.016688" id="Fill-28" fill="#A04453"></path>
                <path d="M16.6414803,39.2678836 L14.3709018,40.0147924 C14.1505736,40.0870881 14.0131079,40.2792512 14.0131079,40.483666 C14.0131079,40.5388536 14.0226874,40.5954761 14.0441215,40.6506637 C14.1447061,40.9089415 13.9982597,41.1938198 13.7173411,41.286535 L11.5473473,42 C11.1451285,41.7887419 10.7510522,41.5658945 10.3651185,41.3327822 L11.9991399,40.7951447 C12.2194682,40.7221868 12.3569339,40.5306859 12.3569339,40.3262711 C12.3569339,40.2710835 12.3473544,40.214461 12.3259203,40.1592734 C12.2253356,39.9003333 11.9169958,39.7653445 11.6360773,39.8580596 L10.7207571,40.1592734 C10.6608853,40.1790306 10.600295,40.1878606 10.5404232,40.1878606 C10.3185383,40.1878606 10.1100646,40.0611499 10.0317523,39.8573974 C9.93116765,39.5991195 10.0774943,39.3142412 10.3585326,39.2215261 L13.9842497,38.0289225 C14.2651682,37.9368696 14.573508,38.0718584 14.6740927,38.3301363 C14.7738391,38.5890764 15.0828974,38.7240652 15.3639356,38.6313501 L16.2784177,38.3307985 C16.3382895,38.3110414 16.3997179,38.3015491 16.4603082,38.3015491 C16.6821931,38.3015491 16.8899483,38.4282598 16.9682607,38.6320123 C17.0688453,38.8910628 16.9223988,39.1751685 16.6414803,39.2678836" id="Fill-30" fill="#BC4A5A"></path>
                <path d="M26.5729932,43.810308 L25.8592518,43.9755974 C25.5247898,44.0530742 25.1569926,43.9399436 25.0376036,43.7228962 C24.9182146,43.5058488 25.0925447,43.2671688 25.4270068,43.189692 L26.1407482,43.0244026 C26.4752102,42.9469258 26.8430074,43.0600564 26.9623964,43.2771038 C27.0817854,43.4941512 26.9074553,43.7328312 26.5729932,43.810308" id="Fill-32" fill="#A04453"></path>
                <path d="M33.5729932,10.810308 L32.8592518,10.9755974 C32.5247898,11.0530742 32.1569926,10.9399436 32.0376036,10.7228962 C31.9182146,10.5058488 32.0925447,10.2671688 32.4270068,10.189692 L33.1407482,10.0244026 C33.4752102,9.94692578 33.8430074,10.0600564 33.9623964,10.2771038 C34.0817854,10.4941512 33.9074553,10.7328312 33.5729932,10.810308" id="Fill-34" fill="#A04453"></path>
                <path d="M8.62857348,35.7395087 L4.81383662,37 C4.53224621,36.679895 4.2604375,36.3526564 4,36.0170387 L4.67787112,35.7932936 C4.96850959,35.6968205 5.12024806,35.4011735 5.01607306,35.1319093 L4.96398556,34.9955788 C4.85981056,34.7264279 5.01154903,34.4306676 5.30230976,34.3341945 L6.22325589,34.0301684 C6.51389435,33.9343746 6.83326654,34.0742154 6.93744154,34.3433663 L6.98952904,34.4796968 C7.09370403,34.7488477 7.41307622,34.8893678 7.70371468,34.7928947 L8.20050227,34.628596 C8.49114074,34.5328023 8.81124654,34.672643 8.91468792,34.9417939 L8.96750904,35.0781244 C9.07095042,35.3472753 8.91921195,35.6430356 8.62857348,35.7395087" id="Fill-36" fill="#A04453"></path>
                <path d="M18.5862079,2.19651598 L11.3352869,4.75753812 C11.0111505,4.87146385 10.8420879,5.22424323 10.9580644,5.54413439 L11.167659,6.12488355 L11.1897782,6.11683895 L11.398775,6.69687828 C11.5146319,7.01747926 11.3455693,7.37025864 11.0215526,7.48430268 L6.83205181,8.96415421 C6.76258549,8.98828801 6.69252135,9 6.62317459,9 C6.36695027,9 6.12698657,8.84289369 6.03623797,8.59090842 C5.92109844,8.27018914 6.08932411,7.91811957 6.41346043,7.80348402 L9.18111349,6.8260651 C9.43578348,6.73627316 9.59456364,6.49883915 9.59456364,6.24543425 C9.59456364,6.17670024 9.58272687,6.10666489 9.55833594,6.0386407 C9.44247903,5.71874954 9.08582147,5.55146917 8.7625221,5.66539491 L8.67619734,5.69615368 C8.60673102,5.72099729 8.53582994,5.73188116 8.46648318,5.73188116 C8.34094163,5.73188116 8.21922611,5.69390592 8.11652117,5.62529021 C9.03118101,4.86046168 10.0078942,4.16732473 11.0385306,3.55368735 L11.0392479,3.55297754 L15.1438587,2.10376647 C15.4088111,2.01018884 15.5697434,1.75678393 15.5557545,1.49237685 C16.0415405,1.33243127 16.5346199,1.18774677 17.0343948,1.06068941 C17.1990336,1.22430238 17.450834,1.2892507 17.6848196,1.20679355 L18.1676165,1.03584579 C18.2369633,1.01171199 18.307147,1 18.3764937,1 C18.632718,1 18.8726817,1.15710631 18.9634303,1.40909158 C19.0794068,1.72981086 18.9103442,2.08188043 18.5862079,2.19651598" id="Fill-38" fill="#A04453"></path>
                <path d="M11.5729932,26.810308 L10.8592518,26.9755974 C10.5247898,27.0530742 10.1569926,26.9399436 10.0376036,26.7228962 C9.91821456,26.5058488 10.0925447,26.2671688 10.4270068,26.189692 L11.1407482,26.0244026 C11.4752102,25.9469258 11.8430074,26.0600564 11.9623964,26.2771038 C12.0817854,26.4941512 11.9074553,26.7328312 11.5729932,26.810308" id="Fill-40" fill="#A04453"></path>
                <path d="M46,25 C45.9681629,25.3057904 45.9248892,25.6086011 45.8709001,25.9089957 L45.62084,25.9785778 C45.5693237,25.9929935 45.5164679,26 45.4643334,26 C45.273517,26 45.0947554,25.9074656 45.0272691,25.7587984 C44.9408247,25.5698639 45.0667305,25.3620037 45.3084451,25.2948377 L45.7455094,25.1730692 C45.8593605,25.141258 45.9478655,25.077555 46,25" id="Fill-42" fill="#BC4A5A"></path>
                <path d="M46,22.4709748 C46,22.9354944 45.9841896,23.3971114 45.9524402,23.8545488 C45.8444665,23.5828728 45.5127047,23.441578 45.2126922,23.5384062 L40.7745901,24.9692333 C40.7103201,24.9900153 40.6443791,25 40.5793378,25 C40.3411531,25 40.1181361,24.8667162 40.0340709,24.652394 C39.9260973,24.3799053 40.0833018,24.0810616 40.3848567,23.9835369 L43.2952604,23.0452097 C43.5317741,22.9691636 43.679338,22.767032 43.679338,22.5520132 C43.679338,22.4939628 43.6690548,22.4350996 43.6460462,22.3770492 C43.5380725,22.1046765 43.2070819,21.9626852 42.905527,22.0595133 L42.250744,22.270933 C42.186474,22.291715 42.1205329,22.3011192 42.0562629,22.3011192 C41.8182067,22.3011192 41.5951898,22.1677193 41.5102248,21.9540937 C41.4031509,21.6817211 41.5594556,21.3820647 41.8610106,21.2852366 L45.84768,20 C45.8920264,20.3561975 45.9269893,20.7161102 45.9515404,21.0781127 L45.5246589,21.2158083 C45.2872455,21.2917383 45.1396815,21.4931733 45.1396815,21.7081921 C45.1396815,21.7670552 45.1507359,21.8264989 45.1737446,21.8845493 C45.2817182,22.1563414 45.6127088,22.2982167 45.9142638,22.2013886 L45.9976863,22.1749176 C45.9992288,22.2731389 46,22.3720568 46,22.4709748" id="Fill-44" fill="#BC4A5A"></path>
                <path d="M32,2.7386745 L29.0989668,3.96280761 C29.0398224,3.98783557 28.9792586,4 28.9192861,4 C28.7002152,4 28.4949841,3.83934564 28.417505,3.58123602 C28.3182607,3.25321588 28.4628096,2.89317673 28.7404334,2.77586689 L28.9075755,2.70497763 C29.126055,2.61353468 29.2618505,2.37094519 29.2618505,2.11283557 C29.2618505,2.04194631 29.2516777,1.97035794 29.230504,1.90044743 C29.1318511,1.57228747 28.8265477,1.40142617 28.5497519,1.51789709 L27.7127402,1.87108501 C27.6535958,1.89611298 27.5930319,1.90813758 27.5330595,1.90813758 C27.3139886,1.90813758 27.1087575,1.74762304 27.0312784,1.48951342 C26.9808873,1.32284676 26.9933077,1.14765101 27.0546995,1 C28.7791139,1.3557047 30.4355121,1.94449105 32,2.7386745" id="Fill-46" fill="#BC4A5A"></path>
                <path d="M0.759157046,19.7223597 L0,20 C0.0318060069,19.719802 0.0711005167,19.4416667 0.117803008,19.1665842 L0.515015747,19.0213696 C0.555357037,19.0066007 0.596584064,19 0.636844832,19 C0.785970718,19 0.925675583,19.0947195 0.978900319,19.2470297 C1.04605528,19.440099 0.947577441,19.6530528 0.759157046,19.7223597" id="Fill-48" fill="#BC4A5A"></path>
                <path d="M36.9996748,41.7018668 C36.1433581,42.4663976 35.2430169,43.1644803 34.3042495,43.7897578 C34.1548712,43.5719475 33.9011572,43.478557 33.6670379,43.5784561 L32.7666966,43.9607972 C32.7030773,43.987891 32.637931,44 32.5741844,44 C32.3385383,44 32.1170157,43.8262361 32.0336743,43.5475782 C31.926921,43.1924823 32.0824067,42.8018163 32.381036,42.6757316 L36.2336976,41.0392028 C36.297317,41.012109 36.3625905,41 36.4262098,41 C36.661856,41 36.8833786,41.1739152 36.96672,41.45333 C36.9910226,41.5355197 37.0020924,41.6196771 36.9996748,41.7018668" id="Fill-50" fill="#BC4A5A"></path>
                <path d="M22,44.403112 C22,44.5689744 21.8377056,44.7242334 21.5770807,44.7830553 L20.616523,45 L20.6157892,45 C19.7277564,44.9426486 18.854889,44.8542609 18,44.7352238 L21.1489023,44.023633 C21.4804623,43.948635 21.8444322,44.0580748 21.9629426,44.2678989 C21.9878921,44.3127893 22,44.3582215 22,44.403112" id="Fill-52" fill="#BC4A5A"></path>
                <path d="M5,12.5952902 C5,12.8404134 4.83464077,13.0700878 4.5694185,13.1570597 L2,14 C2.25065372,13.4778256 2.52359607,12.9662938 2.81807994,12.4666634 L2.81807994,12.4659767 L4.13348275,12.0350083 C4.47104968,11.9240048 4.84161375,12.0858182 4.9622712,12.3953693 C4.98767277,12.4617426 5,12.5289169 5,12.5952902" id="Fill-54" fill="#BC4A5A"></path>
                <path d="M43,10.7081533 L41.8439243,10.9759543 C41.5151589,11.0522327 41.1542566,10.9410032 41.0367451,10.7275968 C41.0112782,10.68194 41,10.6352598 41,10.5895243 C41,10.4213811 41.1610478,10.2633927 41.4193548,10.2036452 L42.2991754,10 C42.5432937,10.2313542 42.7768615,10.467589 43,10.7081533" id="Fill-56" fill="#BC4A5A"></path>
                <path d="M46,18.5948643 L42.8929671,19.9520151 C42.5459446,20.1042586 42.163116,19.8820994 42.0387577,19.4572631 C42.012577,19.3670797 42,19.2739111 42,19.1827849 C42,18.8460896 42.1703029,18.5307618 42.4436602,18.4115123 L45.6727413,17 C45.7931211,17.5258606 45.9025924,18.0573773 46,18.5948643" id="Fill-58" fill="#BC4A5A"></path>
            </g>
        </g>
    </g>
</svg>