<svg width="42px" height="47px" viewBox="0 0 42 47" version="1.1" xmlns="http://www.w3.org/2000/svg" xmlns:xlink="http://www.w3.org/1999/xlink">
    <!-- Generator: Sketch 48.2 (47327) - http://www.bohemiancoding.com/sketch -->
    <desc>Created with Sketch.</desc>
    <defs>
        <polygon id="path-1" points="0 0.000423423423 41.78076 0.000423423423 41.78076 46.9999153 0 46.9999153"></polygon>
    </defs>
    <g id="Welcome" stroke="none" stroke-width="1" fill="none" fill-rule="evenodd">
        <g id="Features" transform="translate(-1267.000000, -1567.000000)">
            <g id="Page-1" transform="translate(1267.000000, 1567.000000)">
                <g id="Group-3">
                    <mask id="mask-2" fill="white">
                        <use xlink:href="#path-1"></use>
                    </mask>
                    <g id="Clip-2"></g>
                    <path d="M39.15597,9.81275315 L23.51559,0.70914955 C21.89145,-0.235931532 19.88973,-0.235931532 18.26559,0.70914955 L2.62479,9.81275315 C1.00065,10.7578342 -0.00021,12.5053027 -0.00021,14.3963117 L-0.00021,32.6035189 C-0.00021,34.4945279 1.00065,36.2419964 2.62479,37.1870775 L18.26559,46.2906811 C19.07745,46.763645 19.98423,46.9999153 20.89059,46.9999153 C21.79695,46.9999153 22.70331,46.763645 23.51559,46.2906811 L39.15597,37.1870775 C40.78053,36.2419964 41.78097,34.4945279 41.78097,32.6035189 L41.78097,14.3963117 C41.78097,12.5053027 40.78053,10.7578342 39.15597,9.81275315" id="Fill-1" fill="#6CCDF2" mask="url(#mask-2)"></path>
                </g>
                <path d="M32.2325581,17.012264 C31.4421692,17.3540813 30.5924575,17.5846488 29.7004346,17.687831 C30.6107777,17.1570586 31.3095653,16.3163153 31.638894,15.3137926 C30.7870013,15.8055 29.8439434,16.1630283 28.8393818,16.3553802 C28.0354707,15.5214307 26.8895813,15 25.6215566,15 C23.1871413,15 21.2129137,16.9218204 21.2129137,19.2916125 C21.2129137,19.6279099 21.2521714,19.9552902 21.3271973,20.2695074 C17.6631426,20.0907433 14.4143475,18.3825057 12.2403417,15.785543 C11.8608503,16.4194975 11.643188,17.1562094 11.643188,17.9430263 C11.643188,19.4321611 12.4217997,20.745504 13.6043297,21.5153362 C12.8819875,21.4928315 12.2019564,21.300055 11.6078561,20.9781946 C11.6074199,20.9960286 11.6074199,21.0142871 11.6074199,21.0325457 C11.6074199,23.1114747 13.1271302,24.8460386 15.144105,25.2405085 C14.77421,25.3385953 14.3846861,25.3912479 13.9825125,25.3912479 C13.698112,25.3912479 13.4219993,25.364497 13.1528658,25.3139674 C13.7138151,27.0188081 15.3421385,28.259966 17.2710015,28.2943601 C15.7621962,29.4454991 13.8612497,30.1316815 11.7954208,30.1316815 C11.4399202,30.1316815 11.0892179,30.1112998 10.744186,30.0718104 C12.6952952,31.2896143 15.0123735,32 17.5021859,32 C25.6115241,32 30.0454665,25.4604606 30.0454665,19.7892647 C30.0454665,19.6037067 30.0415407,19.4181487 30.0332529,19.2338645 C30.8943058,18.6292087 31.6419474,17.8729643 32.2325581,17.012264" id="Fill-4" fill="#FEFEFE"></path>
            </g>
        </g>
    </g>
</svg>