<svg width="42px" height="47px" viewBox="0 0 42 47" version="1.1" xmlns="http://www.w3.org/2000/svg" xmlns:xlink="http://www.w3.org/1999/xlink">
    <!-- Generator: Sketch 48.2 (47327) - http://www.bohemiancoding.com/sketch -->
    <desc>Created with Sketch.</desc>
    <defs>
        <polygon id="path-1" points="0 0.000419642857 41.78076 0.000419642857 41.78076 46.5802732 0 46.5802732"></polygon>
    </defs>
    <g id="Welcome" stroke="none" stroke-width="1" fill="none" fill-rule="evenodd">
        <g id="Features" transform="translate(-1349.000000, -1567.000000)">
            <g id="Page-1" transform="translate(1349.000000, 1567.000000)">
                <g id="Group-3" transform="translate(0.000000, 0.419223)">
                    <mask id="mask-2" fill="white">
                        <use xlink:href="#path-1"></use>
                    </mask>
                    <g id="Clip-2"></g>
                    <path d="M39.15597,9.72513929 L23.51559,0.702817857 C21.89145,-0.233825 19.88973,-0.233825 18.26559,0.702817857 L2.62479,9.72513929 C1.00065,10.6617821 -0.00021,12.3936482 -0.00021,14.2677732 L-0.00021,32.3124161 C-0.00021,34.1865411 1.00065,35.9184071 2.62479,36.85505 L18.26559,45.8773714 C19.07745,46.3461125 19.98423,46.5802732 20.89059,46.5802732 C21.79695,46.5802732 22.70331,46.3461125 23.51559,45.8773714 L39.15597,36.85505 C40.78053,35.9184071 41.78097,34.1865411 41.78097,32.3124161 L41.78097,14.2677732 C41.78097,12.3936482 40.78053,10.6617821 39.15597,9.72513929" id="Fill-1" fill="#EB2928" mask="url(#mask-2)"></path>
                </g>
                <path d="M28.390824,29.6651411 L26.287044,29.6651411 L26.287044,30.7012393 C26.287044,30.9907929 26.321904,31.1913821 26.394564,31.3034268 C26.467224,31.4163107 26.591964,31.4708643 26.767104,31.4708643 C26.950224,31.4708643 27.077064,31.423025 27.149724,31.329025 C27.221124,31.2329268 27.259344,31.0252036 27.259344,30.7012393 L27.259344,30.4502929 L28.390824,30.4502929 L28.390824,30.7327125 C28.390824,31.2971321 28.254324,31.7209714 27.975864,32.0075875 C27.701604,32.2912661 27.290004,32.4331054 26.741904,32.4331054 C26.249244,32.4331054 25.860324,32.2820339 25.578084,31.9798911 C25.295844,31.6798464 25.153044,31.2631411 25.153044,30.7327125 L25.153044,28.2631143 C25.153044,27.7880786 25.309284,27.3973911 25.620504,27.0973464 C25.932144,26.7973018 26.331564,26.6483286 26.824644,26.6483286 C27.328224,26.6483286 27.715044,26.7863911 27.985104,27.0646143 C28.256004,27.3432571 28.390824,27.7427571 28.390824,28.2631143 L28.390824,29.6651411 Z M24.576804,31.1469 C24.576804,31.5354893 24.490704,31.8338554 24.318084,32.0424179 C24.146724,32.2497214 23.895984,32.3529536 23.570484,32.3529536 C23.354604,32.3529536 23.162664,32.3139268 22.994664,32.233775 C22.826664,32.1540429 22.668744,32.0310875 22.524684,31.8602929 L22.524684,32.2820339 L21.412944,32.2820339 L21.412944,24.8304357 L22.524684,24.8304357 L22.524684,27.2303732 C22.673784,27.0641946 22.832124,26.9353643 22.995504,26.8489179 C23.164344,26.7607929 23.333184,26.7179893 23.504124,26.7179893 C23.851884,26.7179893 24.117324,26.8338107 24.300864,27.0688107 C24.485244,27.3025518 24.576804,27.6458196 24.576804,28.0965161 L24.576804,31.1469 Z M20.586384,32.2820339 L19.486404,32.2820339 L19.486404,31.6798464 C19.282704,31.9022571 19.072284,32.0722125 18.851784,32.1880339 C18.632544,32.3072125 18.420024,32.363025 18.212544,32.363025 C17.957604,32.363025 17.768184,32.2820339 17.637984,32.1179536 C17.510724,31.9534536 17.445204,31.7092214 17.445204,31.3810607 L17.445204,26.7838732 L18.545184,26.7838732 L18.545184,31.0017036 C18.545184,31.1317929 18.568284,31.2257929 18.612804,31.2832839 C18.660264,31.3432929 18.736284,31.3709893 18.839184,31.3709893 C18.918144,31.3709893 19.021464,31.3328018 19.145364,31.2560071 C19.270104,31.1783732 19.383504,31.0801768 19.486404,30.9605786 L19.486404,26.7838732 L20.586384,26.7838732 L20.586384,32.2820339 Z M16.962204,25.9139536 L15.679524,25.9139536 L15.679524,32.2820339 L14.440524,32.2820339 L14.440524,25.9139536 L13.157844,25.9139536 L13.157844,24.8304357 L16.962204,24.8304357 L16.962204,25.9139536 Z M27.471024,22.6625607 L14.356104,22.6625607 C12.631164,22.6625607 11.232564,24.1988732 11.232564,26.0935607 L11.232564,27.3348643 L11.232564,30.3181054 L11.232564,30.5988464 C11.232564,32.4935339 12.631164,34.0298464 14.356104,34.0298464 L14.768964,34.0298464 L27.057324,34.0298464 L27.471024,34.0298464 C29.195964,34.0298464 30.594564,32.4935339 30.594564,30.5988464 L30.594564,30.3181054 L30.594564,27.3348643 L30.594564,26.0935607 C30.594564,24.1988732 29.195964,22.6625607 27.471024,22.6625607 Z" id="Fill-4" fill="#FEFEFE"></path>
                <path d="M26.777268,27.6095205 C26.601708,27.6095205 26.476968,27.659458 26.400948,27.7614313 C26.323248,27.8583688 26.287128,28.023708 26.287128,28.2549313 L26.287128,28.8092795 L27.259008,28.8092795 L27.259008,28.2549313 C27.259008,28.023708 27.219528,27.8583688 27.143088,27.7614313 C27.069168,27.659458 26.944848,27.6095205 26.777268,27.6095205" id="Fill-6" fill="#FEFEFE"></path>
                <path d="M22.984962,27.5906786 C22.906422,27.5906786 22.828302,27.6078839 22.751442,27.6439732 C22.675002,27.6796429 22.599822,27.7371339 22.524642,27.8118304 L22.524642,31.2369554 C22.613682,31.3259196 22.701042,31.3943214 22.785462,31.4329286 C22.871142,31.4706964 22.958082,31.4925179 23.051322,31.4925179 C23.186142,31.4925179 23.284842,31.4534911 23.348262,31.3750179 C23.410422,31.2969643 23.443182,31.1714911 23.443182,30.9960804 L23.443182,28.1563571 C23.443182,27.9696161 23.405382,27.829875 23.327682,27.7337768 C23.247462,27.6385179 23.132802,27.5906786 22.984962,27.5906786" id="Fill-8" fill="#FEFEFE"></path>
                <polygon id="Fill-10" fill="#FEFEFE" points="16.068066 21.546017 17.461206 21.546017 17.461206 18.1397759 19.084506 13.3357045 17.667846 13.3357045 16.805166 16.6173116 16.716966 16.6173116 15.811446 13.3357045 14.407806 13.3357045 16.068066 18.2929455"></polygon>
                <path d="M20.459208,16.828308 C20.459208,16.6965402 20.506248,16.5903705 20.599488,16.506442 C20.695248,16.4250312 20.817888,16.3851652 20.968668,16.3851652 C21.132888,16.3851652 21.264768,16.4250312 21.366408,16.506442 C21.466368,16.5903705 21.517188,16.6965402 21.517188,16.828308 L21.517188,20.1271205 C21.517188,20.2891027 21.467208,20.417933 21.368088,20.5106741 C21.269388,20.6029955 21.136248,20.6491562 20.968668,20.6491562 C20.805288,20.6491562 20.678448,20.6050937 20.590668,20.5123527 C20.503308,20.4212902 20.459208,20.2932991 20.459208,20.1271205 L20.459208,16.828308 Z M20.972868,21.6982634 C21.535668,21.6982634 21.977088,21.5513884 22.299228,21.2563795 C22.618428,20.959692 22.778448,20.5559955 22.778448,20.0377366 L22.778448,16.9088795 C22.778448,16.447692 22.615488,16.0679152 22.289568,15.7750045 C21.961548,15.4837723 21.541128,15.336058 21.028728,15.336058 C20.466348,15.336058 20.017368,15.4753795 19.684308,15.7527634 C19.351668,16.0309866 19.184928,16.4032098 19.184928,16.8736295 L19.184928,20.0133973 C19.184928,20.5278795 19.347888,20.936192 19.671708,21.241692 C19.997208,21.545933 20.431488,21.6982634 20.972868,21.6982634 Z" id="Fill-12" fill="#FEFEFE"></path>
                <path d="M24.647742,21.6337223 C24.880422,21.6337223 25.119402,21.568258 25.365522,21.4406866 C25.613742,21.3105973 25.851462,21.121758 26.078262,20.8745884 L26.078262,21.546017 L27.316422,21.546017 L27.316422,15.4893116 L26.078262,15.4893116 L26.078262,20.0869187 C25.963182,20.218267 25.835502,20.3265348 25.697322,20.412142 C25.557042,20.4973295 25.442382,20.5397134 25.351242,20.5397134 C25.235322,20.5397134 25.149642,20.5082402 25.099242,20.4423562 C25.048422,20.3789902 25.019862,20.2753384 25.019862,20.1326598 L25.019862,15.4893116 L23.782962,15.4893116 L23.782962,20.551883 C23.782962,20.911517 23.856042,21.1821866 24.000102,21.3613741 C24.145842,21.5418205 24.360042,21.6337223 24.647742,21.6337223" id="Fill-14" fill="#FEFEFE"></path>
            </g>
        </g>
    </g>
</svg>