<svg width="251px" height="172px" viewBox="0 0 251 172" version="1.1" xmlns="http://www.w3.org/2000/svg" xmlns:xlink="http://www.w3.org/1999/xlink">
    <!-- Generator: Sketch 48.2 (47327) - http://www.bohemiancoding.com/sketch -->
    <desc>Created with Sketch.</desc>
    <defs></defs>
    <g id="Welcome" stroke="none" stroke-width="1" fill="none" fill-rule="evenodd">
        <g id="Home" transform="translate(-125.000000, -995.000000)" stroke="#9B9B9B" stroke-width="3">
            <g id="Group-5" transform="translate(127.000000, 997.000000)">
                <polyline id="Stroke-1" points="133.536075 60 138 67.6315135 104.614191 98.6632948 61.4629181 113 57 105.370513"></polyline>
                <path d="M115.468867,23.2933327 C143.865536,11.2063072 165.687712,7.29976919 170.172684,14.879407 C170.353184,15.1849066 170.50921,15.5310041 170.629544,15.8730419 C174.838157,27.6626873 142.736644,57.8239214 97.2974875,84.4531335 C50.5346622,111.858781 7.35328843,125.147506 0.829784555,114.122117 C0.762479372,114.007428 0.682936883,113.873455 0.627869006,113.751661 C-3.19628912,106.001512 10.7307849,89.1706156 34.700608,70.6376502" id="Stroke-2"></path>
                <path d="M115.893129,23.262276 C144.070641,11.2145906 165.733297,7.31301263 170.18057,14.8559289 C170.35935,15.1595418 170.513888,15.503502 170.633075,15.8424188 C174.801573,27.5592569 143.006043,57.5352376 98,84" id="Stroke-4"></path>
                <path d="M117.334383,22.6413007 C145.002667,11.0622397 166.133293,7.43519882 170.542149,14.8886915 C170.723041,15.1949298 170.879405,15.5418641 171,15.8847288 C158.465316,32.4154891 130.060179,55.2317637 94.4030137,76.1332862 C56.5158707,98.3421713 20.6992756,112.373173 0.629473279,114 C-3.19378421,106.25146 10.6807263,89.4490537 34.58605,70.9282536" id="Stroke-6"></path>
                <path d="M112.248471,28.6957082 L40.4186681,72.2051202 C37.761376,73.8142299 34.3386461,72.9030598 32.7733918,70.1695496 C31.2081376,67.4349991 32.0939016,63.9140965 34.7522049,62.3039466 L106.580996,18.7955747 C109.2393,17.1854249 112.662029,18.096595 114.227284,20.8311454 C115.791527,23.5646556 114.905763,27.0855583 112.248471,28.6957082 Z" id="Stroke-8"></path>
                <path d="M35.4283392,60 C24.4408553,41.059337 30.6609297,16.6636646 49.3201418,5.51044838 C67.9793539,-5.64276788 92.0125162,0.670102344 103,19.6117915" id="Stroke-10"></path>
                <path d="M34.6404952,89.5632633 C36.1393098,92.0939231 32.8147952,96.8040696 27.2142278,100.082356 C21.6136603,103.361648 15.8592645,103.967397 14.3594378,101.436737 C12.8606231,98.9060769 16.1861498,94.1959304 21.7857052,90.9176442 C27.3862727,87.6383519 33.1416805,87.0326035 34.6404952,89.5632633 Z" id="Stroke-12"></path>
                <path d="M63.6404952,76.5632633 C65.1393098,79.0939231 61.8147952,83.8040696 56.2142278,87.0823558 C50.6136603,90.3616481 44.8592645,90.9673965 43.3594378,88.4367367 C41.8606231,85.9060769 45.1861498,81.1959304 50.7857052,77.9176442 C56.3862727,74.6383519 62.1416805,74.0326035 63.6404952,76.5632633 Z" id="Stroke-14"></path>
                <path d="M93.6404952,61.5632633 C95.1393098,64.0939231 91.8147952,68.8040696 86.2142278,72.0823558 C80.6136603,75.3616481 74.8592645,75.9673965 73.3594378,73.4367367 C71.8606231,70.9060769 75.1861498,66.1959304 80.7857052,62.9176442 C86.3862727,59.6383519 92.1416805,59.0326035 93.6404952,61.5632633 Z" id="Stroke-16"></path>
                <path d="M126.640495,40.5632633 C128.13931,43.0939231 124.814795,47.8040696 119.214228,51.0823558 C113.61366,54.3616481 107.859265,54.9673965 106.359438,52.4367367 C104.860623,49.9060769 108.18615,45.1959304 113.785705,41.9176442 C119.386273,38.6383519 125.141681,38.0326035 126.640495,40.5632633 Z" id="Stroke-18"></path>
                <path d="M152.640495,19.5632633 C154.13931,22.0939231 150.814795,26.8040696 145.214228,30.0823558 C139.61366,33.3616481 133.859265,33.9673965 132.359438,31.4367367 C130.860623,28.9060769 134.18615,24.1959304 139.785705,20.9176442 C145.386273,17.6383519 151.141681,17.0326035 152.640495,19.5632633 Z" id="Stroke-20"></path>
                <path d="M70,2.00759736 L59.9785583,44.0541544 L55,47 L65.9720237,2.46230453 C67.3943231,2.34426542 68.5838268,1.93985317 70,2.00759736 Z" id="Stroke-22"></path>
                <path d="M58,5.00903554 L45.9742594,54.5291829 L40,58 L53.1663285,5.544433 C54.8735579,5.40646519 56.3000754,4.92872592 58,5.00903554 Z" id="Stroke-24"></path>
                <path d="M75,123 L73,168" id="Stroke-26" stroke-linecap="round"></path>
                <path d="M116,113 L170,168" id="Stroke-28" stroke-linecap="round"></path>
                <path d="M151,83 L247,108" id="Stroke-30" stroke-linecap="round"></path>
            </g>
        </g>
    </g>
</svg>