
<svg width="261px" height="126px" viewBox="0 0 261 126" version="1.1" xmlns="http://www.w3.org/2000/svg" xmlns:xlink="http://www.w3.org/1999/xlink">
    <!-- Generator: Sketch 48.2 (47327) - http://www.bohemiancoding.com/sketch -->
    <desc>Created with Sketch.</desc>
    <defs></defs>
    <g id="Welcome" stroke="none" stroke-width="1" fill="none" fill-rule="evenodd">
        <g id="Home" transform="translate(-1096.000000, -995.000000)">
            <g id="Group-8" transform="translate(1097.000000, 997.000000)">
                <path d="M116,68.5 C116,69.8806537 114.880654,71 113.5,71 C112.119346,71 111,69.8806537 111,68.5 C111,67.1193463 112.119346,66 113.5,66 C114.880654,66 116,67.1193463 116,68.5" id="Fill-1" fill="#06EFE3"></path>
                <g id="Group-7" stroke="#9B9B9B" stroke-width="2">
                    <path d="M154.70196,43.7427794 L28.9337495,72.0861397 C27.5333074,72.4017794 26.6542968,73.7918603 26.9702337,75.1909853 C27.2861705,76.5901103 28.67756,77.4682941 30.0780021,77.1526544 L67.4354968,68.7334853 C68.8359389,68.4178456 70.2273284,69.2960294 70.5432653,70.6951544 C70.8592021,72.0942794 69.9801916,73.4843603 68.5797495,73.8 L13.6420442,86.1804926 C12.2416021,86.4961324 11.3625916,87.8862132 11.6785284,89.2853382 L11.7165495,89.4544632 C12.0324863,90.8535882 13.4238758,91.7317721 14.8243179,91.4161324 L56.4075811,82.0446176 C57.8080232,81.7289779 59.1994126,82.6071618 59.5153495,84.0062868 C59.8312863,85.4054118 58.9522758,86.7954926 57.5518337,87.1111324 L32.1954126,92.8252059 C30.7949705,93.1408456 29.91596,94.5309265 30.2318968,95.9300515 C30.5478337,97.3291765 31.9392232,98.2073603 33.3396653,97.8917206 L68.5000863,89.9681691 C69.9005284,89.6525294 71.2919179,90.5307132 71.6078547,91.9298382 C71.9228863,93.3289632 71.0438758,94.7190441 69.6434337,95.0346838 L2.02751789,110.272213 C0.627075789,110.587853 -0.251934737,111.977934 0.0640021053,113.377059 C0.379938947,114.776184 1.77132842,115.654368 3.17177053,115.338728 L64.3639389,101.548257 C65.7643811,101.232618 67.1557705,102.110801 67.4717074,103.509926 C67.7876442,104.909051 66.9086337,106.299132 65.5081916,106.614772 L18.1774126,117.281404 C16.7769705,117.597044 15.8970547,118.987125 16.2129916,120.38625 C16.5289284,121.785375 17.9203179,122.663559 19.32076,122.347919 L169.681349,88.4623235 C170.824697,88.2045662 171.929118,87.868125 172.990992,87.4593309" id="Stroke-3"></path>
                    <path d="M157.947147,48.3356537 L105.509779,60.1526978 C104.436137,60.3950801 103.762621,61.4604772 104.004326,62.5331096 C104.246937,63.6057419 105.313337,64.2795287 106.386979,64.0371463 L135.969168,57.3707272 C137.042811,57.1283449 138.109211,57.8021316 138.351821,58.874764 L138.389842,59.043889 C138.631547,60.1165213 137.958032,61.1819184 136.884389,61.4233963 L114.232895,66.5288007 C113.159253,66.7702787 112.484832,67.8356757 112.727442,68.9083081 C112.969147,69.9809404 114.036453,70.6547272 115.110095,70.4123449 L132.351737,66.5269919 C133.425379,66.285514 134.491779,66.9583963 134.734389,68.0310287 L134.772411,68.2001537 C135.015021,69.272786 134.3406,70.3381831 133.266958,70.5805654 L104.191716,77.1321243 C103.118979,77.3745066 102.444558,78.4399037 102.686263,79.512536 C102.928874,80.5851684 103.995274,81.2589551 105.068916,81.0165728 L130.594621,75.264514 C131.667358,75.0221316 132.734663,75.6959184 132.976368,76.7685507 L133.014389,76.9376757 C133.257,78.0103081 132.582579,79.0757051 131.508937,79.3171831 L122.718832,81.2987493 C121.645189,81.5402272 120.971674,82.6065287 121.213379,83.679161 C121.455989,84.750889 122.522389,85.4246757 123.596032,85.1831978 L144.388116,80.4974404 C145.461758,80.2550581 146.528158,80.9288449 146.770768,82.0014772 C147.012474,83.0741096 146.338958,84.1395066 145.265316,84.3809846 L115.852411,91.0094184 C114.778768,91.2518007 114.104347,92.3171978 114.346958,93.3898301 L114.384979,93.5589551 C114.626684,94.6315875 115.693989,95.3053743 116.767632,95.0629919 L167.986516,83.5199846 C170.256916,83.0080875 172.332684,82.095536 174.155884,80.8718669" id="Stroke-5"></path>
                    <polyline id="Stroke-7" points="154.517015 43.7842919 149.879352 39.268564 187.037688 33.8737478 203.654699 0.235056618 220.272615 33.8737478 257.430952 39.268564 230.542825 65.452189 236.890531 102.425446 203.654699 84.9693949 170.419773 102.425446 174.116867 80.8914022"></polyline>
                </g>
                <polyline id="Stroke-9" stroke="#9B9B9B" stroke-width="2" points="174.379226 81 177 65.6053523 155 44"></polyline>
                <path d="M195.176908,48.0206194 C194.696433,46.8400961 195.225785,45.5028983 196.387777,44.9527161 C197.559913,44.3988904 198.734816,43.7639947 199.912486,43.0480291 C201.438753,42.1207353 202.821154,41.0577178 204.060612,39.8589765 C204.613019,39.3233687 205.336959,39 206.11162,39 C207.707053,39 209,40.2779894 209,41.8538423 L209,69.5861212 C209,70.9187645 207.906252,72 206.55705,72 L205.609935,72 C204.260733,72 203.166985,70.9187645 203.166985,69.5861212 L203.166985,46.7143922 C202.298258,47.3811693 201.205432,48.0315502 199.887586,48.6664458 C199.379445,48.9114773 198.877759,49.1401126 198.384374,49.3523518 C197.134772,49.8879596 195.685048,49.2694601 195.176908,48.0206194" id="Fill-11" fill="#9B9B9B"></path>
            </g>
        </g>
    </g>
</svg>