
<svg width="300px" height="177px" viewBox="0 0 300 177" version="1.1" xmlns="http://www.w3.org/2000/svg" xmlns:xlink="http://www.w3.org/1999/xlink">
    <!-- Generator: Sketch 48.2 (47327) - http://www.bohemiancoding.com/sketch -->
    <desc>Created with Sketch.</desc>
    <defs></defs>
    <g id="Welcome" stroke="none" stroke-width="1" fill="none" fill-rule="evenodd">
        <g id="Home" transform="translate(-570.000000, -993.000000)">
            <g id="Group-6" transform="translate(571.000000, 994.000000)">
                <path d="M99.6822336,121 C97.5492087,118.957858 95.544658,116.782456 93.681781,114.485267 C92.830859,113.436838 92.0089756,112.365464 91.2214107,111.266731 C86.2267533,104.337216 82.464921,96.4554658 80.2579794,87.9462468 C79.9315139,86.6983692 79.6393669,85.4346063 79.3832983,84.1602532 C78.4769387,79.6479491 78,74.9820871 78,70.2023806 C78,67.4003924 78.1645527,64.6345873 78.4839784,61.9173207 C78.6300519,60.6588529 78.8104439,59.4083277 79.0251543,58.1719229 C80.0063106,52.4699872 81.6755962,47.0028007 83.9423751,41.8594976 C84.685942,40.1677145 85.4963859,38.5103495 86.3710669,36.8918152 L86.3710669,36.8891677 C90.5614401,29.0991992 96.1835095,22.1970417 102.878251,16.5312892 C105.706445,14.1343758 108.72647,11.9616215 111.912808,10.0386192 L111.915448,10.0359716 C116.281814,7.39460134 120.959685,5.22008198 125.880426,3.57860227 C127.382519,3.0773332 128.907491,2.62371999 130.452702,2.22570528 C136.060692,0.77131896 141.93883,0 147.99912,0 C152.134936,0 156.187155,0.359184001 160.1241,1.05107652 C165.513859,1.9944861 170.690669,3.55565685 175.579731,5.66133997 C180.800538,7.90734312 185.694,10.773755 190.1686,14.1661464 C191.337188,15.0495449 192.478498,15.9726566 193.588128,16.9293039 C194.722398,17.9044841 195.822348,18.9158474 196.890621,19.9598638 C197.899936,20.9491642 198.878452,21.9658226 199.82353,23.011604 C202.005833,25.4173425 204.021823,27.9748738 205.852141,30.6691951 C206.596588,31.7591023 207.308477,32.8710724 207.988686,34.0051055 C211.173264,39.2975538 213.676753,45.0453803 215.386516,51.1285629 C215.734101,52.3693803 216.049127,53.6234355 216.329834,54.891611 C216.86837,57.3185299 217.281072,59.7957523 217.56178,62.3109228 C217.690254,63.4493684 217.790569,64.5984042 217.860966,65.7545001 C217.934003,66.9123611 217.977121,68.0799297 217.99384,69.257206 C217.99824,69.5704992 218,69.8864399 218,70.2023806 C218,71.68589 217.955122,73.1596916 217.863606,74.6202556 C217.836327,75.0694562 217.803769,75.5160093 217.76769,75.9616798 L217.76769,75.9643274 C217.653295,77.3719404 217.498422,78.7663156 217.303951,80.1492181 C216.2128,87.8527001 213.878264,95.1528722 210.506254,101.837048 C208.054683,106.704124 205.051377,111.246433 201.581692,115.381021" id="Stroke-1" stroke="#9B9B9B" stroke-width="2" stroke-linecap="round"></path>
                <path d="M133.997096,89.6130507 C133.684549,88.7368285 134.140939,87.7734288 135.015539,87.4603016 L135.542962,87.2717137 C136.417562,86.9585866 136.873952,85.9951869 136.561405,85.1189646 C136.249745,84.2427424 135.287242,83.7855056 134.412642,84.0986328 L123.116541,88.1372612 C122.241941,88.4503883 121.786439,89.413788 122.098098,90.2900102 C122.410646,91.1662325 123.372262,91.6234692 124.246861,91.3103421 L126.886643,90.3665129 C127.761243,90.0542753 128.722859,90.5106225 129.035407,91.3868448 C129.347066,92.263067 128.891564,93.2273562 128.016964,93.5395938 L127.488652,93.7290713 C126.614052,94.0413089 126.15855,95.0055981 126.47021,95.8818204 C126.782757,96.7580426 127.744373,97.2143898 128.618973,96.9012627 L146.883459,90.3709607 C147.758059,90.0587231 148.213561,89.0944339 147.901902,88.2182116 C147.589354,87.3419894 146.627738,86.8856422 145.753139,87.1978797 L136.145859,90.6333826 C135.271259,90.9456202 134.309643,90.4892729 133.997096,89.6130507 Z" id="Stroke-3" stroke="#9B9B9B" stroke-width="2"></path>
                <path d="M124.903879,42.1123427 C124.598727,41.2316562 123.659863,40.7729839 122.805957,41.0868123 L107.757265,46.6266434 C106.903359,46.9404718 105.964495,46.4817995 105.659343,45.601113 C105.355057,44.7204265 105.799782,43.7512243 106.653689,43.4373959 L115.208357,40.2883828 C116.062264,39.9736603 116.507855,39.0053522 116.202703,38.1246657 C115.898418,37.2439792 114.958687,36.7844128 114.104781,37.0991353 L96.2733076,43.6627086 C95.4194012,43.976537 94.9746764,44.9457392 95.2789618,45.8264257 C95.5841141,46.7071122 96.5229777,47.1657845 97.3768841,46.8519561 L99.2320717,46.1688652 C100.085978,45.8541428 101.025709,46.3137091 101.329994,47.1943956 C101.635146,48.0750821 101.189555,49.0433903 100.336515,49.3581128 L92.0904666,52.3935754 C91.2365602,52.7074038 90.7909684,53.676606 91.0961208,54.5572925 C91.4004062,55.4379791 92.3401367,55.8966513 93.1940431,55.5828229 L105.768574,50.9531836 C106.62248,50.6393552 107.56221,51.0980274 107.866496,51.9787139 C108.171648,52.8594005 107.726056,53.8286027 106.87215,54.1424311 L105.326449,54.7119715 C104.472543,55.0257999 104.026951,55.9950021 104.332104,56.8756886 C104.636389,57.7563751 105.576119,58.2150474 106.430026,57.901219 L117.458856,53.84112 C118.312762,53.5272917 118.757487,52.5580894 118.453201,51.6774029 C118.148049,50.7967164 117.209186,50.3380441 116.355279,50.6518725 L114.808712,51.221413 C113.954805,51.5352413 113.015942,51.0765691 112.710789,50.1958826 C112.406504,49.3151961 112.851229,48.3468879 113.705135,48.0321654 L123.909533,44.2760598 C124.76344,43.9613373 125.209032,42.9930292 124.903879,42.1123427 Z" id="Stroke-5" stroke="#9B9B9B" stroke-width="2"></path>
                <path d="M144.716038,14.0964902 C144.401862,13.2375964 143.435234,12.790274 142.556076,13.0963367 L131.201101,17.0559681 C130.321943,17.3620308 129.864066,18.30725 130.17735,19.1661438 C130.491526,20.0250377 131.458154,20.4723601 132.337312,20.1654254 L135.202386,19.1670158 C136.081545,18.8600812 137.049065,19.3082755 137.362349,20.1671694 C137.676525,21.0260632 137.217756,21.9704105 136.338598,22.2773451 L129.12236,24.7929885 C128.243202,25.0999232 127.785326,26.0442704 128.09861,26.9031643 C128.412786,27.7620581 129.379414,28.2102525 130.258572,27.9033178 L141.71976,23.9070635 C142.598918,23.6010008 143.057687,22.6557816 142.743511,21.7968878 C142.430227,20.9379939 142.888103,19.9936467 143.767261,19.686712 L150.877286,17.2076915 C151.756444,16.9016288 152.215213,15.9564096 151.901037,15.0975157 C151.587753,14.2386219 150.620233,13.7912995 149.741074,14.0973622 L146.876001,15.0966438 C145.996842,15.4027064 145.030215,14.9553841 144.716038,14.0964902 Z" id="Stroke-7" stroke="#9B9B9B" stroke-width="2"></path>
                <path d="M160.706758,34.5294217 L147.602993,38.8937969 C146.590012,39.2310517 145.475556,38.7384604 145.114158,37.7931503 C144.751871,36.8478403 145.280615,35.8078331 146.293595,35.4705783 L159.39736,31.1062031 C160.410341,30.7689483 161.524797,31.2615396 161.886194,32.2068497 C162.247592,33.1521597 161.719738,34.1921669 160.706758,34.5294217 Z" id="Stroke-9" stroke="#9B9B9B" stroke-width="2"></path>
                <path d="M162.719147,85.0513847 L160.577707,85.8780907 C159.574431,86.2652217 158.471532,85.6997815 158.112715,84.6146704 C157.75478,83.5295593 158.277577,82.3357463 159.280853,81.9486153 L161.422293,81.1219093 C162.425569,80.7347783 163.529349,81.3002185 163.887285,82.3853296 C164.24522,83.4704407 163.722423,84.6642537 162.719147,85.0513847 Z" id="Stroke-11" stroke="#9B9B9B" stroke-width="2"></path>
                <path d="M132.982505,65.7007808 L132.607872,64.6365538 C132.348579,63.8980365 132.727683,63.0860304 133.455491,62.822015 C134.184193,62.5579996 134.563297,61.7459935 134.30311,61.0074762 L133.929371,59.9432491 C133.669184,59.2047318 132.868953,58.8191423 132.141145,59.0831577 L117.929217,64.2300971 C117.201409,64.4932052 116.822305,65.3061186 117.081598,66.0446359 L117.456231,67.108863 C117.716418,67.8473803 118.516649,68.2320625 119.244457,67.9689544 L126.352656,65.3941238 C127.080464,65.1310156 127.880696,65.5156979 128.140883,66.2542152 L128.515516,67.3184422 C128.774809,68.0569595 128.395705,68.8698729 127.667897,69.132981 L127.544509,69.1783445 C126.816701,69.4414526 126.436703,70.254366 126.69689,70.9928833 L127.070629,72.0571103 C127.330816,72.7956276 128.131047,73.1803099 128.85975,72.9172017 L143.070783,67.7702624 C143.798591,67.506247 144.177695,66.6942408 143.918402,65.9557235 L143.543769,64.8914965 C143.284476,64.1529792 142.483351,63.7673897 141.755543,64.0314051 L134.770731,66.5608722 C134.042923,66.8248876 133.242692,66.4392981 132.982505,65.7007808 Z" id="Stroke-13" stroke="#9B9B9B" stroke-width="2"></path>
                <path d="M195.913,44.5373229 L195.754372,44.1011947 C195.439759,43.2384381 194.472126,42.7893556 193.591739,43.0968044 L190.803407,44.0726952 C189.92302,44.380144 189.46476,45.3292626 189.778492,46.1911555 L189.93712,46.6272837 C190.251733,47.4900403 189.792592,48.4382953 188.913086,48.7457441 L176.554181,53.0690268 C175.673794,53.3764756 174.706161,52.9265294 174.391549,52.0646365 L174.23292,51.6285083 C173.919189,50.7657517 174.377448,49.8174967 175.257835,49.5100479 L175.838591,49.3062336 C176.718097,48.9987848 177.177237,48.0505298 176.862625,47.1877732 L176.703996,46.751645 C176.390265,45.8897521 175.421751,45.439806 174.542245,45.7472548 L161.123174,50.4410305 C160.243668,50.7484793 159.784528,51.6975979 160.09914,52.5594909 L160.257769,52.9956191 C160.5715,53.8583756 161.540014,54.3074581 162.41952,54.0000093 L167.535282,52.2105883 C168.415669,51.9022759 169.383301,52.352222 169.697914,53.2149786 L169.856542,53.6511068 C170.170274,54.5129997 169.712014,55.4621183 168.831627,55.7695671 L167.188943,56.3438745 C166.309438,56.652187 165.850297,57.6004419 166.164028,58.4623349 L166.323538,58.8984631 C166.637269,59.7612197 167.604902,60.2111658 168.485289,59.9028534 L200.876302,48.5738837 C201.756689,48.2664349 202.214949,47.3173163 201.901217,46.4554233 L201.742589,46.0192951 C201.427976,45.1565385 200.460344,44.707456 199.579957,45.0149048 L198.074751,45.5417131 C197.195245,45.8491619 196.226731,45.4000794 195.913,44.5373229 Z" id="Stroke-15" stroke="#9B9B9B" stroke-width="2"></path>
                <path d="M100.706758,73.5294217 L87.6029925,77.8937969 C86.5900121,78.2310517 85.4755556,77.7384604 85.1141584,76.7931503 C84.7518711,75.8478403 85.2806148,74.8078331 86.2935952,74.4705783 L99.3973602,70.1062031 C100.410341,69.7689483 101.524797,70.2615396 101.886194,71.2068497 C102.247592,72.1521597 101.719738,73.1921669 100.706758,73.5294217 Z" id="Stroke-17" stroke="#9B9B9B" stroke-width="2"></path>
                <path d="M92,81.9811489 C92,82.7941646 91.5259443,83.559196 90.7655862,83.8480067 L79.8436152,88 C79.5292772,86.7207225 79.246373,85.4242432 79,84.1159941 L89.5167298,80.1161017 C90.4835316,79.7476191 91.5463338,80.2854046 91.8921056,81.3166127 C91.9643184,81.5348051 92,81.7602404 92,81.9811489 Z" id="Stroke-19" stroke="#9B9B9B" stroke-width="2"></path>
                <path d="M195.706758,69.5294217 L182.602993,73.8937969 C181.590012,74.2310517 180.475556,73.7384604 180.114158,72.7931503 C179.751871,71.8478403 180.280615,70.8078331 181.293595,70.4705783 L194.39736,66.1062031 C195.410341,65.7689483 196.524797,66.2615396 196.886194,67.2068497 C197.247592,68.1521597 196.719738,69.1921669 195.706758,69.5294217 Z" id="Stroke-21" stroke="#9B9B9B" stroke-width="2"></path>
                <path d="M200,22.885557 L188.727001,26.919208 C188.007297,27.1762979 187.213325,26.7995283 186.956919,26.0770171 L186.587342,25.0380196 C186.330936,24.3155084 186.706703,23.5229625 187.427291,23.2649861 L187.54842,23.2215468 C188.266355,22.9635705 188.642122,22.170138 188.385717,21.4485134 L188.016139,20.4086293 C187.759734,19.6870047 186.965761,19.3093486 186.247825,19.5673249 L179.218779,22.0832594 C178.498191,22.3403492 177.706871,21.9653526 177.450466,21.243728 L177.080888,20.2038439 C176.824483,19.4822193 177.197597,18.6887869 177.918184,18.4308105 L190.298148,14 C191.472308,14.8874032 192.619059,15.8138132 193.733981,16.7756838 C193.603126,16.8953636 193.447514,16.9919939 193.270683,17.0540501 C192.550979,17.3111399 192.176981,18.1072319 192.433386,18.8270835 L192.802964,19.8687406 C193.060253,20.5885922 193.85069,20.9653618 194.571277,20.7073854 L197.053105,19.8199822 C198.066349,20.8137674 199.050416,21.8350347 200,22.885557 Z" id="Stroke-23" stroke="#9B9B9B" stroke-width="2"></path>
                <path d="M178.719147,35.0513847 L176.577707,35.8780907 C175.574431,36.2652217 174.471532,35.6997815 174.112715,34.6146704 C173.75478,33.5295593 174.277577,32.3357463 175.280853,31.9486153 L177.422293,31.1219093 C178.425569,30.7347783 179.529349,31.3002185 179.887285,32.3853296 C180.24522,33.4704407 179.722423,34.6642537 178.719147,35.0513847 Z" id="Stroke-25" stroke="#9B9B9B" stroke-width="2"></path>
                <path d="M101.885541,104.7983 L90.4420182,109 C89.5968721,107.93273 88.7814109,106.842103 88,105.723626 L90.0342876,104.977975 C90.9056263,104.656357 91.3613765,103.670839 91.0488122,102.773363 L90.89253,102.318785 C90.5799656,101.421308 91.0348428,100.435791 91.9070546,100.114173 L94.670368,99.1008056 C95.5417067,98.7809841 96.4994807,99.2472407 96.8120451,100.144717 L96.9683272,100.599295 C97.2808916,101.495873 98.2395387,101.964825 99.1108774,101.643207 L100.601233,101.095198 C101.473445,100.776275 102.433838,101.242532 102.743783,102.13911 L102.902685,102.593688 C103.21263,103.491164 102.757753,104.476682 101.885541,104.7983 Z" id="Stroke-27" stroke="#9B9B9B" stroke-width="2"></path>
                <path d="M134.726578,5.73900035 L112.416446,13.7423442 C111.419066,14.0978529 110.898922,15.2004576 111.255317,16.2001056 L111.900681,18.0154875 L111.968982,17.9899683 L112.611719,19.8027103 C112.968113,20.8041183 112.44797,21.906723 111.45059,22.2631116 L98.5599603,26.8873636 C98.3462987,26.9630412 98.1308857,27 97.917224,27 C97.1291276,27 96.390944,26.5089757 96.1116076,25.7214009 C95.7569643,24.719113 96.2753565,23.6191482 97.2718606,23.2609996 L105.78768,20.2066174 C106.571398,19.9259064 107.060017,19.1840901 107.060017,18.3921155 C107.060017,18.1774023 107.024115,17.9582893 106.948808,17.7453361 C106.592414,16.7456881 105.495208,16.2229849 104.500456,16.5793735 L104.234254,16.6752904 C104.020593,16.7527279 103.802553,16.7870468 103.588891,16.7870468 C103.202724,16.7870468 102.82794,16.6682506 102.512701,16.4535375 C105.327081,14.063534 108.332355,11.8979233 111.50313,9.98046463 L111.504881,9.97782471 L124.134563,5.44948962 C124.949805,5.15733897 125.44543,4.36448434 125.402523,3.53819078 C126.896403,3.03836677 128.413926,2.58694122 129.95159,2.18919395 C130.458599,2.70045759 131.232684,2.90373108 131.953355,2.64589933 L133.438479,2.11175642 C133.65214,2.03695882 133.867553,2 134.081215,2 C134.869311,2 135.607495,2.49102429 135.887707,3.27859908 C136.244102,4.28000704 135.723958,5.38085181 134.726578,5.73900035 Z" id="Stroke-29" stroke="#9B9B9B" stroke-width="2"></path>
                <path d="M112.719147,85.0513847 L110.577707,85.8780907 C109.574431,86.2652217 108.471532,85.6997815 108.112715,84.6146704 C107.75478,83.5295593 108.277577,82.3357463 109.280853,81.9486153 L111.422293,81.1219093 C112.425569,80.7347783 113.529349,81.3002185 113.887285,82.3853296 C114.24522,83.4704407 113.722423,84.6642537 112.719147,85.0513847 Z" id="Stroke-31" stroke="#9B9B9B" stroke-width="2"></path>
                <path d="M218,76 C217.872467,77.5286563 217.699808,79.0429366 217.483003,80.5447575 L216.483344,80.8926586 C216.27733,80.964539 216.066411,81 215.857454,81 C215.094221,81 214.379058,80.5370903 214.109277,79.7933678 C213.762977,78.8493387 214.267221,77.809469 215.233525,77.4740272 L216.981702,76.8654399 C217.437876,76.7063446 217.791043,76.3881541 218,76 Z" id="Stroke-33" stroke="#9B9B9B" stroke-width="2"></path>
                <path d="M217,69.9071515 C217,71.3936111 216.954922,72.8703438 216.864766,74.3338123 C216.559621,73.4645739 215.619048,73.0127114 214.769499,73.3222063 L202.194431,77.9009616 C202.012385,77.967282 201.826004,78 201.641357,78 C200.966919,78 200.334958,77.5728971 200.096564,76.887587 C199.790553,76.0156958 200.236133,75.0589146 201.090017,74.7467669 L209.336716,71.7446667 C210.00682,71.5014922 210.42466,70.8542058 210.42466,70.166243 C210.42466,69.980546 210.395185,69.7921963 210.330169,69.6064994 C210.024158,68.7346082 209.087052,68.2809771 208.232302,68.590472 L206.377163,69.2669393 C206.195116,69.3341439 206.008736,69.3633249 205.825822,69.3633249 C205.151384,69.3633249 204.519423,68.9371062 204.279295,68.2535647 C203.975885,67.3816735 204.418864,66.4231237 205.272748,66.1136288 L216.56829,62 C216.693989,63.1407096 216.792814,64.2920305 216.863032,65.4504256 L215.652857,65.8907925 C214.981019,66.1339671 214.562313,66.7786006 214.562313,67.4665635 C214.562313,67.6549132 214.593521,67.8450315 214.659404,68.0307284 C214.964549,68.8999668 215.902521,69.3544821 216.757272,69.0449873 L216.993065,68.9600973 C216.997399,69.2740135 217,69.5905825 217,69.9071515 Z" id="Stroke-35" stroke="#9B9B9B" stroke-width="2"></path>
                <path d="M81.7956096,59.889238 L78,61 C78.1590687,59.8790259 78.355509,58.7666929 78.5893209,57.666143 L80.5748051,57.0856245 C80.7760366,57.025923 80.9830176,57 81.1842491,57 C81.9297639,57 82.6283247,57.3786332 82.8947169,57.9882168 C83.2301028,58.7604085 82.7375647,59.6119403 81.7956096,59.889238 Z" id="Stroke-39" stroke="#9B9B9B" stroke-width="2"></path>
                <path d="M93,36.7857703 C93,37.521238 92.503853,38.210126 91.7080616,38.4708084 L84,41 C84.7522229,39.4334539 85.5711322,37.898778 86.4540605,36.4000584 L86.4540605,36.3976068 L90.4010077,35.1048181 C91.4128631,34.7722233 92.5251926,35.257632 92.8870777,36.1859556 C92.9626556,36.385349 93,36.5863769 93,36.7857703 Z" id="Stroke-41" stroke="#9B9B9B" stroke-width="2"></path>
                <path d="M208,34.540543 L204.531967,35.8793723 C203.545678,36.2616273 202.46327,35.705109 202.110839,34.6379806 C202.033771,34.4093771 202,34.1760891 202,33.9474857 C202,33.1070869 202.483187,32.3163437 203.25819,32.0174728 L205.897532,31 C206.630105,32.1561339 207.330639,33.3375641 208,34.540543 Z" id="Stroke-43" stroke="#9B9B9B" stroke-width="2"></path>
                <path d="M216,54.7215166 L206.679496,57.8880778 C205.638488,58.2432143 204.490263,57.724907 204.117297,56.733666 C204.038488,56.5233763 204,56.306106 204,56.0931986 C204,55.3078845 204.51134,54.5723069 205.331501,54.2939566 L215.018557,51 C215.379611,52.2268352 215.707675,53.4676316 216,54.7215166 Z" id="Stroke-45" stroke="#9B9B9B" stroke-width="2"></path>
                <path d="M195.706758,89.5294217 L182.602993,93.8937969 C181.590012,94.2310517 180.475556,93.7384604 180.114158,92.7931503 C179.751871,91.8478403 180.280615,90.8078331 181.293595,90.4705783 L194.39736,86.1062031 C195.410341,85.7689483 196.524797,86.2615396 196.886194,87.2068497 C197.247592,88.1521597 196.719738,89.1921669 195.706758,89.5294217 Z" id="Stroke-47" stroke="#9B9B9B" stroke-width="2"></path>
                <path d="M201.719147,104.051385 L199.577707,104.878091 C198.574431,105.265222 197.471532,104.699782 197.112715,103.61467 C196.75478,102.529559 197.277577,101.335746 198.280853,100.948615 L200.422293,100.121909 C201.425569,99.7347783 202.529349,100.300218 202.887285,101.38533 C203.24522,102.470441 202.722423,103.664254 201.719147,104.051385 Z" id="Stroke-49" stroke="#9B9B9B" stroke-width="2"></path>
                <path d="M232,32.6463203 C238.075823,29.6634974 244.928335,28 252.143596,28 C277.476885,28 298,48.5382361 298,73.8684036 C298,89.7612019 289.935677,103.754877 277.657818,112" id="Stroke-51" stroke="#9B9B9B" stroke-width="2"></path>
                <path d="M223,38 C225.75931,35.6647727 228.776567,33.6467803 232,32" id="Stroke-53" stroke="#9B9B9B" stroke-width="2" stroke-linecap="round"></path>
                <path d="M277,111.43791 C269.748191,116.20852 261.042866,119 251.672551,119 C240.806665,119 230.829185,115.253018 223,109" id="Stroke-55" stroke="#9B9B9B" stroke-width="2" stroke-linecap="round"></path>
                <path d="M262,94.1175098 C260.344648,95.3036886 258.323751,96 256.139137,96 C250.539007,96 246,91.4162414 246,85.7608981 C246,82.6581134 247.366033,79.8772416 249.52466,78 C248.784906,79.5124654 248.369985,81.2156291 248.369985,83.0167663 C248.369985,89.2888176 253.406204,94.3738154 259.617021,94.3738154 C260.434736,94.3738154 261.232527,94.2854644 262,94.1175098 Z" id="Stroke-57" stroke="#9B9B9B" stroke-width="2"></path>
                <path d="M266,86.3198775 C266,89.7968634 264.301427,92.873608 261.699154,94.7416945 C260.926917,94.9118411 260.125949,95 259.304087,95 C253.061765,95 248,89.8762064 248,83.5552153 C248,81.7391425 248.417025,80.0235709 249.160532,78.4984224 C250.943555,76.9424183 253.268102,76 255.808561,76 C261.437098,76 266,80.6204065 266,86.3198775 Z" id="Stroke-59" stroke="#9B9B9B" stroke-width="2"></path>
                <path d="M266,86.3198775 C266,89.7968634 264.301427,92.873608 261.699154,94.7416945 C260.926917,94.9118411 260.125949,95 259.304087,95 C253.061765,95 248,89.8762064 248,83.5552153 C248,81.7391425 248.417025,80.0235709 249.160532,78.4984224 C250.943555,76.9424183 253.268102,76 255.808561,76 C261.437098,76 266,80.6204065 266,86.3198775 Z" id="Stroke-61" stroke="#9B9B9B" stroke-width="2"></path>
                <path d="M261,53.9543866 C260.068743,54.6137576 258.931872,55 257.703719,55 C254.55312,55 252,52.4535589 252,49.311201 C252,47.5878242 252.768057,46.0428545 253.982379,45 C253.56654,45.8405371 253.333265,46.786831 253.333265,47.7873827 C253.333265,51.2718411 256.165762,54.0969285 259.659359,54.0969285 C260.119455,54.0969285 260.568487,54.0481883 261,53.9543866 Z" id="Stroke-63" stroke="#9B9B9B" stroke-width="2"></path>
                <path d="M264,49.4315568 C264,51.2613926 263.056379,52.8804987 261.610287,53.8647818 C261.181951,53.9534639 260.736226,54 260.280432,54 C256.812557,54 254,51.3035385 254,47.9766441 C254,47.0204583 254.231558,46.117833 254.644335,45.3153042 C255.635548,44.4960927 256.926963,44 258.338276,44 C261.464763,44 264,46.4312934 264,49.4315568 Z" id="Stroke-65" stroke="#9B9B9B" stroke-width="2"></path>
                <path d="M264,49.4315568 C264,51.2613926 263.056379,52.8804987 261.610287,53.8647818 C261.181951,53.9534639 260.736226,54 260.280432,54 C256.812557,54 254,51.3035385 254,47.9766441 C254,47.0204583 254.231558,46.117833 254.644335,45.3153042 C255.635548,44.4960927 256.926963,44 258.338276,44 C261.464763,44 264,46.4312934 264,49.4315568 Z" id="Stroke-67" stroke="#9B9B9B" stroke-width="2"></path>
                <path d="M278,61.6861779 C277.690123,61.883512 277.310523,62 276.900904,62 C275.851194,62 275,61.2358737 275,60.2935381 C275,59.7762967 275.256617,59.3129528 275.660426,59 C275.52195,59.2521008 275.44448,59.535497 275.44448,59.8362793 C275.44448,60.8811939 276.388638,61.7287743 277.553583,61.7287743 C277.706585,61.7287743 277.855713,61.7139959 278,61.6861779 Z" id="Stroke-69" stroke="#9B9B9B" stroke-width="2"></path>
                <path d="M279,60.6294964 C279,61.1781959 278.717128,61.6646375 278.282872,61.9593248 C278.154844,61.9867183 278.020761,62 277.884083,62 C276.844291,62 276,61.1914776 276,60.1928611 C276,59.9064748 276.070069,59.6350304 276.193772,59.3942999 C276.490484,59.1485888 276.878028,59 277.301903,59 C278.239619,59 279,59.7296624 279,60.6294964 Z" id="Stroke-71" stroke="#9B9B9B" stroke-width="2"></path>
                <path d="M279,60.6294964 C279,61.1781959 278.717128,61.6646375 278.282872,61.9593248 C278.154844,61.9867183 278.020761,62 277.884083,62 C276.844291,62 276,61.1914776 276,60.1928611 C276,59.9064748 276.070069,59.6350304 276.193772,59.3942999 C276.490484,59.1485888 276.878028,59 277.301903,59 C278.239619,59 279,59.7296624 279,60.6294964 Z" id="Stroke-73" stroke="#9B9B9B" stroke-width="2"></path>
                <path d="M277,96.6861779 C276.690123,96.883512 276.310523,97 275.900904,97 C274.851194,97 274,96.2358737 274,95.2935381 C274,94.7762967 274.255649,94.3129528 274.660426,94 C274.52195,94.2521008 274.44448,94.535497 274.44448,94.8362793 C274.44448,95.8811939 275.388638,96.7287743 276.553583,96.7287743 C276.706585,96.7287743 276.855713,96.7139959 277,96.6861779 Z" id="Stroke-75" stroke="#9B9B9B" stroke-width="2"></path>
                <path d="M277,94.6294964 C277,95.1781959 276.717128,95.6646375 276.282872,95.9593248 C276.154844,95.9867183 276.020761,96 275.884083,96 C274.843426,96 274,95.1914776 274,94.1928611 C274,93.9064748 274.070069,93.6350304 274.193772,93.3942999 C274.490484,93.1485888 274.878028,93 275.301903,93 C276.239619,93 277,93.7296624 277,94.6294964 Z" id="Stroke-77" stroke="#9B9B9B" stroke-width="2"></path>
                <path d="M277,94.6294964 C277,95.1781959 276.717128,95.6646375 276.282872,95.9593248 C276.154844,95.9867183 276.020761,96 275.884083,96 C274.843426,96 274,95.1914776 274,94.1928611 C274,93.9064748 274.070069,93.6350304 274.193772,93.3942999 C274.490484,93.1485888 274.878028,93 275.301903,93 C276.239619,93 277,93.7296624 277,94.6294964 Z" id="Stroke-79" stroke="#9B9B9B" stroke-width="2"></path>
                <path d="M288,76.6861779 C287.690123,76.883512 287.310523,77 286.900904,77 C285.851194,77 285,76.2358737 285,75.2935381 C285,74.7762967 285.256617,74.3129528 285.660426,74 C285.52195,74.2521008 285.44448,74.535497 285.44448,74.8362793 C285.44448,75.8811939 286.388638,76.7287743 287.553583,76.7287743 C287.706585,76.7287743 287.855713,76.7139959 288,76.6861779 Z" id="Stroke-81" stroke="#9B9B9B" stroke-width="2"></path>
                <path d="M288,74.6294964 C288,75.1781959 287.717128,75.6646375 287.282872,75.9593248 C287.154844,75.9867183 287.020761,76 286.884083,76 C285.844291,76 285,75.1914776 285,74.1928611 C285,73.9064748 285.070069,73.6350304 285.193772,73.3942999 C285.490484,73.1485888 285.878028,73 286.301903,73 C287.239619,73 288,73.7296624 288,74.6294964 Z" id="Stroke-83" stroke="#9B9B9B" stroke-width="2"></path>
                <path d="M288,74.6294964 C288,75.1781959 287.717128,75.6646375 287.282872,75.9593248 C287.154844,75.9867183 287.020761,76 286.884083,76 C285.844291,76 285,75.1914776 285,74.1928611 C285,73.9064748 285.070069,73.6350304 285.193772,73.3942999 C285.490484,73.1485888 285.878028,73 286.301903,73 C287.239619,73 288,73.7296624 288,74.6294964 Z" id="Stroke-85" stroke="#9B9B9B" stroke-width="2"></path>
                <path d="M235,59.6861779 C234.690123,59.883512 234.310523,60 233.900904,60 C232.851194,60 232,59.2358737 232,58.2935381 C232,57.7762967 232.256617,57.3129528 232.660426,57 C232.52195,57.2521008 232.44448,57.535497 232.44448,57.8362793 C232.44448,58.8811939 233.388638,59.7287743 234.553583,59.7287743 C234.706585,59.7287743 234.855713,59.7139959 235,59.6861779 Z" id="Stroke-87" stroke="#9B9B9B" stroke-width="2"></path>
                <path d="M236,57.6294964 C236,58.1781959 235.717128,58.6646375 235.282872,58.9593248 C235.154844,58.9867183 235.020761,59 234.884083,59 C233.844291,59 233,58.1914776 233,57.1928611 C233,56.9064748 233.070069,56.6350304 233.193772,56.3942999 C233.490484,56.1485888 233.878028,56 234.301903,56 C235.239619,56 236,56.7296624 236,57.6294964 Z" id="Stroke-89" stroke="#9B9B9B" stroke-width="2"></path>
                <path d="M236,57.6294964 C236,58.1781959 235.717128,58.6646375 235.282872,58.9593248 C235.154844,58.9867183 235.020761,59 234.884083,59 C233.844291,59 233,58.1914776 233,57.1928611 C233,56.9064748 233.070069,56.6350304 233.193772,56.3942999 C233.490484,56.1485888 233.878028,56 234.301903,56 C235.239619,56 236,56.7296624 236,57.6294964 Z" id="Stroke-91" stroke="#9B9B9B" stroke-width="2"></path>
                <path d="M239,103.686178 C238.690123,103.883512 238.310523,104 237.900904,104 C236.851194,104 236,103.235874 236,102.293538 C236,101.776297 236.256617,101.312953 236.660426,101 C236.52195,101.252101 236.44448,101.535497 236.44448,101.836279 C236.44448,102.881194 237.388638,103.728774 238.553583,103.728774 C238.706585,103.728774 238.855713,103.713996 239,103.686178 Z" id="Stroke-93" stroke="#9B9B9B" stroke-width="2"></path>
                <path d="M240,102.629496 C240,103.178196 239.717128,103.664638 239.282872,103.959325 C239.154844,103.986718 239.020761,104 238.884083,104 C237.844291,104 237,103.191478 237,102.192861 C237,101.906475 237.070069,101.63503 237.193772,101.3943 C237.490484,101.148589 237.878028,101 238.301903,101 C239.239619,101 240,101.729662 240,102.629496 Z" id="Stroke-95" stroke="#9B9B9B" stroke-width="2"></path>
                <path d="M240,102.629496 C240,103.178196 239.717128,103.664638 239.282872,103.959325 C239.154844,103.986718 239.020761,104 238.884083,104 C237.844291,104 237,103.191478 237,102.192861 C237,101.906475 237.070069,101.63503 237.193772,101.3943 C237.490484,101.148589 237.878028,101 238.301903,101 C239.239619,101 240,101.729662 240,102.629496 Z" id="Stroke-97" stroke="#9B9B9B" stroke-width="2"></path>
                <path d="M74,110.012827 C73.6040907,110.330805 73.2020501,110.643484 72.794754,110.948213 C71.3556413,112.02669 69.8499598,113.021256 68.2864684,113.924845 C61.6085649,117.791816 53.8699399,120 45.6171583,120 C41.8639032,120 38.2157568,119.542464 34.7270252,118.682156 C14.7914161,113.757906 0,95.6198852 0,74.0017665 C0,48.5952879 20.4226126,28 45.6171583,28 C48.6118792,28 51.5409072,28.2897137 54.3735855,28.8470593 C61.2730931,30.199351 67.6172766,33.1203364 73.0259931,37.2266749" id="Stroke-99" stroke="#9B9B9B" stroke-width="2" stroke-linecap="round"></path>
                <path d="M74,110 C73.6094309,110.318387 73.2128132,110.631467 72.811011,110.936588 C71.3913097,112.01645 69.9059375,113.012293 68.3635354,113.917043 C61.7757067,117.78898 54.141464,120 46,120" id="Stroke-101" stroke="#9B9B9B" stroke-width="2"></path>
                <path d="M74,110.029584 C73.6011725,110.347029 73.1961685,110.659183 72.7858702,110.963401 L65.5019741,107.929156 C64.411375,107.476797 63.157539,107.99 62.7031227,109.079894 L62.6219454,109.279179 C62.1666467,110.369073 62.6828283,111.619454 63.7734275,112.074458 L68.2443544,113.935038 C61.5172285,117.795521 53.7215625,120 45.4079502,120 C41.6270302,120 37.9519935,119.543232 34.4375467,118.684367 C33.8269524,118.091803 33.6072443,117.164159 33.9557772,116.329984 L34.0369545,116.133344 C34.4922532,115.04345 33.9760715,113.790424 32.8854724,113.338065 L19.2609248,107.661973 C18.4394461,107.32072 17.9444411,106.524462 17.9444411,105.687642 C17.9444411,105.414287 17.9965005,105.136523 18.1094428,104.867576 C18.5638591,103.7768 19.815048,103.261834 20.9056471,103.715957 L30.9778064,107.910639 C32.0684055,108.365643 33.3204768,107.849795 33.7748931,106.759901 L33.8560703,106.563261 C34.311369,105.473367 33.7951874,104.220341 32.7045883,103.766219 L16.3173661,96.9411525 C15.4958873,96.5998992 15,95.8036415 15,94.964176 C15,94.6908206 15.0520593,94.4130563 15.1650016,94.1441099 C15.6203003,93.0533339 16.8714892,92.5401312 17.9620884,92.9924902 L44.0279365,103.849989 C45.1185356,104.304111 46.3697245,103.788263 46.8250232,102.698369 L46.9062005,102.50173 C47.3606168,101.411835 46.8453175,100.15881 45.7547184,99.7064506 L26.9974726,91.893778 C26.1759938,91.5525247 25.6809888,90.756267 25.6809888,89.9168015 C25.6809888,89.6434462 25.7330482,89.3656818 25.8459905,89.0967354 C26.2986421,88.0059594 27.5524781,87.4927567 28.6430772,87.9451157 L42.2676248,93.6212076 C43.3582239,94.076212 44.6094129,93.560364 45.0638292,92.4704697 L45.1476535,92.2738302 C45.6003051,91.1839359 45.0867706,89.9309102 43.9961714,89.4759058 L25.830108,81.909253 C25.0086292,81.5679997 24.5127419,80.7743873 24.5127419,79.9358036 C24.5127419,79.6615665 24.5648012,79.3838022 24.6786259,79.1148558 C25.1330422,78.0249615 26.3842311,77.5091135 27.4748303,77.9632361 L37.7437562,82.2399248 C38.8343553,82.6940474 40.0855442,82.1790812 40.5408429,81.0891869 L40.6220202,80.8916656 C41.0773188,79.8017713 42.3302725,79.2868051 43.421754,79.7409277 L52.5047857,83.524695 C52.773906,83.6375643 53.05185,83.68959 53.3253821,83.68959 C54.1627434,83.68959 54.959516,83.1940232 55.30099,82.3730753 C55.7562887,81.283181 55.2401071,80.0328007 54.149508,79.5777963 L28.0836599,68.7211795 C26.9957078,68.2670569 26.4795262,67.0157947 26.9339425,65.9259004 L27.0160022,65.7292609 C27.4704184,64.6393667 28.7216074,64.1235186 29.8122065,64.578523 L50.7435917,73.2959137 C51.8341908,73.7509181 53.0862621,73.2350701 53.5406784,72.1451758 L53.6245027,71.9485363 C54.0771543,70.858642 53.5636198,69.6056163 52.4730207,69.1506119 L39.6381868,63.8051919 C38.816708,63.4639386 38.3208207,62.6694445 38.3208207,61.8308608 C38.3208207,61.5575054 38.3728801,61.2788593 38.4858224,61.0099129 C38.941121,59.9200186 40.19231,59.4041706 41.2829091,59.859175 L51.7486017,64.2187521 C52.8392008,64.6737565 54.0903897,64.1579085 54.5456884,63.0680142 L54.6295128,62.8713747 C55.0821643,61.7814804 54.5677474,60.5284547 53.4771483,60.0734503 L43.0114557,55.7165186 C42.189977,55.3743835 41.694972,54.5790075 41.694972,53.739542 C41.694972,53.4661867 41.7470314,53.1875406 41.8599737,52.9185942 C42.31439,51.8286999 43.5664613,51.3154972 44.6570604,51.7678563 L65.1922651,60.3229973 C66.2828642,60.7771199 67.5367003,60.2612719 67.9911166,59.1713776 L68.0731762,58.9747381 C68.5275925,57.8848438 68.0114109,56.6318181 66.9208118,56.1776955 L41.0543774,45.4039671 C40.2328986,45.0627138 39.7378937,44.2664561 39.7378937,43.4296359 C39.7378937,43.1562806 39.7890707,42.8785163 39.9028953,42.6095699 C40.3573116,41.5187938 41.6085006,41.0038276 42.6990997,41.4579502 L59.8786827,48.6128063 C60.9692818,49.0678107 62.2213532,48.5519627 62.6757694,47.4620684 L62.7595938,47.2654289 C63.2122454,46.1755346 62.6987109,44.9225089 61.6081117,44.4683863 L56.0774684,42.1660287 C55.2559896,41.8247754 54.7601023,41.0285177 54.7601023,40.1916976 C54.7601023,39.9183422 54.8148087,39.6396961 54.9259863,39.3707497 C55.3804026,38.2808554 56.6342386,37.7650074 57.7248377,38.2200118 L67.0046361,42.0849039 C68.0952352,42.5390265 69.3464242,42.0231785 69.8017228,40.9332842 L69.8855472,40.7366447 C70.3381988,39.6467505 69.8237819,38.3963701 68.7331828,37.9413657 L55.1086352,32.2652739 C54.2871564,31.9240206 53.7921515,31.1277629 53.7921515,30.2918245 C53.7921515,30.0175874 53.8442108,29.7398231 53.9571531,29.4708767 C54.0295068,29.2989273 54.12039,29.1402048 54.2289205,29 C60.333099,30.1860096 66.0058027,32.5791917 70.987617,35.9211814" id="Stroke-103" stroke="#9B9B9B" stroke-width="2" stroke-linecap="round"></path>
                <path d="M179.633674,107 L173.627907,107 L173.627907,112.464727 C173.627907,114.283948 171.913488,115.75787 170.093023,115.75787 C168.273442,115.75787 166.55814,114.283948 166.55814,112.464727 L166.55814,107 L151.534884,107 L151.534884,112.229818 C151.534884,114.049039 150.704186,115.523844 148.883721,115.523844 C147.06414,115.523844 146.232558,114.049039 146.232558,112.229818 L146.232558,107 L131.209302,107 L131.209302,112.464727 C131.209302,114.283948 129.494884,115.75787 127.674419,115.75787 C125.854837,115.75787 124.139535,114.283948 124.139535,112.464727 L124.139535,107 L124.64414,107 C118.952093,107 110,109.032052 110,114.719325 L110,161.672 C110,167.360156 118.952093,175 124.64414,175 L179.633674,175 C185.325721,175 186,167.360156 186,161.672 L186,114.719325 C186,109.032052 185.325721,107 179.633674,107 Z" id="Stroke-105" stroke="#9B9B9B" stroke-width="2"></path>
                <path d="M129.164417,135.473897 C128.717877,134.365005 129.209873,133.10826 130.289235,132.591668 C131.376619,132.071513 132.467568,131.474759 133.562082,130.802299 C135.029158,129.900043 136.354518,128.860623 137.537271,127.68404 C137.967768,127.255624 138.537307,127 139.144281,127 L139.730755,127 C140.98392,127 142,128.015371 142,129.267663 L142,155.733228 C142,156.985519 140.98392,158 139.730755,158 L138.851935,158 C137.59877,158 136.583582,156.985519 136.583582,155.733228 L136.583582,134.246545 C135.777849,134.872691 134.76266,135.484586 133.538908,136.080448 C133.06652,136.311133 132.601262,136.525787 132.142244,136.724407 C130.981774,137.22853 129.636805,136.646919 129.164417,135.473897 Z" id="Fill-107" fill="#9B9B9B"></path>
                <path d="M158.889701,158 C157.518813,158 156.455816,156.745073 156.657063,155.340516 C156.86605,153.886974 157.15674,152.387117 157.529134,150.842728 C158.134595,148.337327 158.875081,145.900506 159.754031,143.528702 C160.632122,141.15868 161.597076,138.937396 162.648033,136.86396 C163.698989,134.791415 164.743066,133.054646 165.779402,131.652761 L154.246399,131.652761 C153.006235,131.652761 152,130.61159 152,129.326381 C152,128.042062 153.006235,127 154.246399,127 L169.753601,127 C170.993765,127 172,128.042062 172,129.326381 L172,130.263345 C172,130.813768 171.803913,131.335689 171.469361,131.762311 C170.666953,132.784778 169.806923,134.075332 168.890131,135.633971 C167.766932,137.542636 166.700495,139.698012 165.693399,142.097426 C164.684584,144.498621 163.814233,147.070821 163.079768,149.814026 C162.528488,151.875883 162.134595,153.928834 161.900667,155.973769 C161.767362,157.134287 160.807568,158 159.679209,158 L158.889701,158 Z" id="Fill-109" fill="#9B9B9B"></path>
            </g>
        </g>
    </g>
</svg>